<svg width="28" height="28" viewBox="0 0 28 28" fill="none" xmlns="http://www.w3.org/2000/svg">
<path fill-rule="evenodd" clip-rule="evenodd" d="M17.0499 16.316L16.2783 16.3159H16.2782H16.2781H16.278C15.5072 16.3157 14.7366 16.3155 13.9655 16.3171L13.9355 16.3171C13.7184 16.3178 13.5308 16.3184 13.5347 15.9934C13.5436 15.2476 13.5397 14.5011 13.5357 13.7547V13.7547V13.7547V13.7547C13.5275 12.2243 13.5193 10.6944 13.6227 9.17216C13.834 6.06599 16.608 3.57782 19.7198 3.50196C22.9771 3.42307 25.7926 5.73322 26.2608 8.86771C26.8504 12.8134 23.9864 16.2139 19.9817 16.31C19.3149 16.3259 18.6476 16.3215 17.9804 16.3171H17.9803H17.9802H17.9801C17.67 16.315 17.3599 16.313 17.0499 16.313V16.315V16.316ZM22.7917 9.31704C23.063 9.94192 23.2765 10.4338 23.6861 10.383C23.73 10.464 23.7768 10.5441 23.8236 10.6241C23.9297 10.8056 24.0358 10.9872 24.1088 11.1809C24.307 11.7069 23.9095 12.1822 23.2684 12.1863C22.3308 12.1928 21.3932 12.1916 20.4556 12.1903C20.0805 12.1898 19.7055 12.1893 19.3304 12.1893C19.0681 12.1893 18.8057 12.1889 18.5434 12.1884C17.9138 12.1874 17.2841 12.1863 16.6545 12.1913C16.2197 12.1954 15.8809 12.0457 15.7656 11.6067C15.6564 11.188 15.8667 10.9058 16.2348 10.7045C16.336 10.6489 16.4351 10.4972 16.4452 10.3819C16.5847 8.77668 17.3958 7.69544 18.9117 7.13408C19.0331 7.08958 19.1474 6.92876 19.1939 6.79727C19.3274 6.42303 19.5549 6.18332 19.9645 6.19445C20.37 6.20557 20.6036 6.43517 20.7007 6.83065C20.728 6.93887 20.819 7.08351 20.9131 7.11588C21.9969 7.4862 22.4422 8.51198 22.7917 9.31704ZM9.93497 26.3293H5.2992V25.7751C5.2992 24.9446 5.29948 24.114 5.29976 23.2834C5.30078 20.2378 5.3018 17.1918 5.28909 14.1464C5.28706 13.7519 5.40741 13.5577 5.76136 13.3817C7.14261 12.6962 8.51529 11.9935 9.88798 11.2908C10.4027 11.0272 10.9175 10.7637 11.4327 10.5011C11.5374 10.4478 11.6447 10.3992 11.7698 10.3424C11.8369 10.312 11.9092 10.2792 11.9889 10.2422C11.9925 10.3156 11.9965 10.3836 12.0003 10.4477L12.0003 10.4478L12.0003 10.4479L12.0003 10.448C12.0082 10.5834 12.0152 10.7021 12.0152 10.8207C12.0164 11.938 12.0162 13.0552 12.016 14.1725V14.1746C12.0159 15.0118 12.0158 15.849 12.0162 16.6861C12.0162 17.6066 12.2397 17.8372 13.1377 17.8372C13.6652 17.8374 14.1927 17.8381 14.7202 17.8387L14.7238 17.8387C16.3856 17.8408 18.0474 17.8429 19.7091 17.8321C20.1197 17.8294 20.5298 17.7948 20.9512 17.7593C21.1495 17.7426 21.3502 17.7257 21.5547 17.7118V26.3263H16.9473V25.8003V20.0361C16.9473 19.1935 16.7197 18.971 15.8612 18.971C15.3107 18.971 14.7602 18.9708 14.2097 18.9706C13.1087 18.9701 12.0078 18.9697 10.9068 18.971C10.1888 18.972 9.93902 19.2198 9.93699 19.944C9.93396 21.3973 9.93434 22.8506 9.93472 24.3043V24.3045V24.3046V24.3048L9.93497 25.7589V26.3293ZM15.4079 26.3254V20.5176H11.4922V26.3254H15.4079ZM6.42188 11.348V8.7793H8.55368C8.55368 8.89073 8.554 9.00222 8.55431 9.11374V9.11383V9.11385C8.55526 9.44865 8.55621 9.78373 8.54863 10.1182C8.5466 10.187 8.49098 10.2851 8.43132 10.3165C7.90827 10.5911 7.38192 10.8591 6.82451 11.1429L6.82446 11.1429L6.42188 11.348ZM17.9824 10.6421H21.9022C21.9497 9.84419 21.6534 9.23943 21.0133 8.82784C20.3327 8.38994 19.6106 8.38388 18.9219 8.80458C18.2555 9.21213 17.9531 9.83104 17.9824 10.6421Z" fill="#E9FBF2"/>
<path d="M1.94634 13.4571C1.64671 13.5971 1.42363 13.7097 1.19398 13.806C0.723762 14.0028 0.290719 13.8508 0.0862263 13.4253C-0.105144 13.0283 0.0238943 12.5908 0.45475 12.3579C1.1743 11.9674 1.9026 11.5901 2.64402 11.2445C3.00489 11.076 3.15033 10.8693 3.14049 10.457C3.11097 9.23642 3.12737 8.01474 3.13065 6.79307C3.13284 5.92685 3.37888 5.67748 4.2231 5.67529C5.4074 5.6731 6.5928 5.66982 7.77711 5.67639C8.45511 5.68076 8.74162 5.96731 8.75255 6.63557C8.75911 7.09056 8.75365 7.54554 8.75365 8.11646C9.51256 7.726 10.2245 7.38805 10.9025 6.99103C11.0457 6.90681 11.0873 6.61807 11.1398 6.41464C12.1218 2.65227 15.526 0.00657417 19.4026 1.1891e-05C23.3503 -0.00655039 26.819 2.70367 27.7529 6.52183C28.69 10.3564 26.889 14.3473 23.3678 16.1585C22.9653 16.3652 22.8385 16.5851 22.8407 17.0215C22.8593 20.284 22.8505 23.5466 22.8505 26.8091C22.8505 27.7574 22.6066 27.9991 21.6531 27.9991C15.4932 27.9991 9.33322 27.9991 3.1733 27.9991C2.16724 27.9991 1.94634 27.7836 1.94634 26.7949C1.94634 22.5666 1.94634 18.3372 1.94634 14.1089C1.94634 13.9164 1.94634 13.7228 1.94634 13.456V13.4571ZM8.60492 26.329C8.60492 26.1048 8.60492 25.909 8.60492 25.7121C8.60492 23.6166 8.60164 21.521 8.60711 19.4244C8.6093 18.6413 8.8794 18.3733 9.65582 18.3722C11.4416 18.3689 13.2273 18.3711 15.0131 18.3722C15.9404 18.3722 16.1865 18.6128 16.1875 19.5239C16.1875 21.6019 16.1875 23.6789 16.1875 25.757V26.3257H21.1697V17.0105C20.4797 17.0576 19.8269 17.1363 19.174 17.1407C16.8054 17.156 14.4368 17.1483 12.0682 17.1462C11.0971 17.1462 10.8554 16.8968 10.8554 15.9015C10.8554 13.7874 10.8554 11.6732 10.8543 9.55907C10.8543 9.36985 10.8379 9.18064 10.8259 8.93346C10.5788 9.0483 10.3983 9.12486 10.2245 9.21345C8.18172 10.2536 6.14555 11.3079 4.09187 12.3284C3.70913 12.5187 3.579 12.7286 3.58119 13.1552C3.59869 17.3463 3.59212 21.5385 3.59212 25.7296V26.329H8.6082H8.60492ZM16.2947 15.5023V15.5001C17.3522 15.5001 18.4096 15.522 19.4649 15.4968C23.7953 15.3929 26.8922 11.7159 26.2547 7.44929C25.7484 4.05988 22.7029 1.56183 19.1817 1.64714C15.8157 1.72808 12.8173 4.41971 12.5887 7.7785C12.4214 10.2284 12.522 12.6958 12.4936 15.1545C12.4892 15.522 12.7123 15.5056 12.9594 15.5045C14.0715 15.5023 15.1826 15.5034 16.2947 15.5034V15.5023ZM14.521 20.0467H10.2868V26.3279H14.521V20.0467ZM4.80158 10.1311C5.56925 9.73953 6.27458 9.38298 6.97445 9.01549C7.03897 8.98159 7.09912 8.8755 7.1013 8.80112C7.11224 8.3188 7.10677 7.83538 7.10677 7.35305H4.80158V10.1311Z" fill="#219653"/>
<path d="M24.1485 10.1524C24.1485 10.7629 23.7129 11.0319 23.0196 11.0363C21.6002 11.0461 20.1808 11.0396 18.7613 11.0396C17.7968 11.0396 16.8323 11.0341 15.8678 11.0417C15.3976 11.045 15.0313 10.8832 14.9066 10.4096C14.7874 9.95678 15.016 9.65273 15.414 9.43398C15.5234 9.37383 15.6305 9.20977 15.6415 9.08509C15.7924 7.34937 16.6705 6.18019 18.3086 5.57317C18.4398 5.52505 18.5623 5.35115 18.6137 5.20897C18.7581 4.80429 19.003 4.54399 19.447 4.55711C19.8844 4.56915 20.1381 4.81742 20.2431 5.24506C20.2715 5.36209 20.3699 5.51849 20.4727 5.55349C22.2793 6.16925 23.0175 7.58309 23.0985 9.45224C23.7985 9.45224 24.1485 9.8023 24.1485 10.1524ZM21.5422 9.36836C21.5936 8.50542 21.2732 7.85138 20.581 7.40624C19.845 6.93266 19.0643 6.9261 18.3196 7.38108C17.5989 7.82185 17.2719 8.4912 17.3037 9.36836H21.5422Z" fill="#219653"/>
</svg>
