<svg width="50" height="44" viewBox="0 0 50 44" fill="none" xmlns="http://www.w3.org/2000/svg">
<path d="M31.5447 2.52686C28.4587 3.84522 25.7829 5.04639 25.5974 5.19287C25.4118 5.33936 25.2068 5.61279 25.1384 5.79834C24.9822 6.21826 24.9529 13.4058 25.0993 15.0171C25.4021 18.396 26.2614 21.0815 27.7947 23.4448C29.4939 26.0425 32.1306 28.4155 35.8122 30.6226C37.4919 31.6284 37.5114 31.6284 39.1911 30.6226C44.9333 27.1655 48.0779 23.4448 49.3181 18.6108C49.8747 16.4038 50.0017 14.8511 49.9919 10.0366C49.9821 5.73975 49.9724 5.63233 49.406 5.19287C48.9177 4.82178 37.8923 0.124516 37.4822 0.124516C37.2771 0.124516 35.1091 1.00342 31.5447 2.52686ZM42.2575 5.41748L46.8767 7.3999V10.6226C46.8767 12.3901 46.8279 14.3237 46.779 14.9194C46.281 20.2808 44.0739 23.689 38.8786 27.1265C38.1853 27.5854 37.57 27.9565 37.5114 27.9565C37.4529 27.9565 36.9548 27.6733 36.4177 27.3218C33.0779 25.1538 30.8122 22.8394 29.6404 20.3882C28.8982 18.8452 28.4197 16.9897 28.2243 14.9194C28.1755 14.3237 28.1267 12.3901 28.1267 10.6226V7.3999L32.697 5.42725C35.2068 4.35303 37.3454 3.46436 37.4529 3.45459C37.5603 3.44483 39.7282 4.3335 42.2575 5.41748Z" fill="#219653"/>
<path d="M41.5156 9.66602C41.291 9.77344 40.3828 10.8379 38.6543 12.9863C37.2676 14.7246 36.0957 16.1406 36.0566 16.1406C36.0176 16.1406 35.5488 15.4766 35.0117 14.666C33.8496 12.9082 33.5957 12.6738 32.8047 12.6738C31.8672 12.6738 31.3008 13.2402 31.3008 14.1875V14.7539L33.0586 17.3711C34.9336 20.1738 35.1777 20.4277 35.9199 20.4375C36.6523 20.4375 36.7891 20.3008 40.2559 15.9648C42.082 13.6895 43.6055 11.7168 43.6641 11.5898C44.1328 10.3398 42.707 9.06055 41.5156 9.66602Z" fill="#219653"/>
<path d="M2.17841 9.68555C1.47529 9.91993 0.93818 10.3203 0.586617 10.8574C-0.0383826 11.7949 -0.00908572 10.8672 0.0202112 26.8926L0.049508 41.4824L0.303414 42.0293C0.62568 42.7227 1.15302 43.25 1.84638 43.5723L2.39326 43.8262H25.0007H47.6081L48.155 43.5723C48.8483 43.25 49.3757 42.7227 49.6979 42.0293L49.9518 41.4824V35.3594C49.9518 29.334 49.9518 29.2363 49.7468 28.9727C49.3659 28.4551 49.0534 28.2988 48.4382 28.2988C47.8229 28.2988 47.5104 28.4551 47.1296 28.9727C46.9245 29.2363 46.9245 29.3535 46.8952 34.998L46.8757 40.75H25.0007H3.12568V31.375V22L11.9929 21.9805L20.8698 21.9512L21.2311 21.668C22.1101 21.0039 22.071 19.8125 21.153 19.1289C20.8893 18.9238 20.8015 18.9238 12.0026 18.8945L3.12568 18.875V15.75V12.625L11.9929 12.6055L20.8698 12.5762L21.2311 12.293C22.1101 11.6289 22.071 10.4375 21.153 9.75391C20.8893 9.54883 20.8015 9.54883 11.7878 9.5293C3.2331 9.50977 2.65693 9.51954 2.17841 9.68555Z" fill="#219653"/>
<path d="M7.17687 28.3867C6.5128 28.6796 6.15148 29.4218 6.29796 30.1738C6.38585 30.6328 6.99132 31.248 7.44054 31.3261C7.61632 31.3554 9.30577 31.375 11.1905 31.3554L14.6183 31.3261L14.9796 31.0429C15.8585 30.3789 15.8194 29.1875 14.9015 28.5039C14.6476 28.3085 14.5011 28.2988 11.0538 28.2792C8.22179 28.2597 7.41124 28.2792 7.17687 28.3867Z" fill="#219653"/>
</svg>
