<svg width="46" height="50" viewBox="0 0 46 50" fill="none" xmlns="http://www.w3.org/2000/svg">
<mask id="path-1-outside-1_1_423" maskUnits="userSpaceOnUse" x="0.121094" y="-1.01758" width="46" height="52" fill="black">
<rect fill="white" x="0.121094" y="-1.01758" width="46" height="52"/>
<path fill-rule="evenodd" clip-rule="evenodd" d="M1.4779 34.1011C1.49743 33.984 1.61462 33.7886 1.7318 33.6715C1.92712 33.4761 1.96618 33.4761 5.31579 33.5347C7.19079 33.5738 8.84118 33.6519 9.01696 33.7105C9.47594 33.8472 9.63219 34.2476 9.55407 35.1363C9.52713 35.4506 9.84013 35.6836 10.1335 35.5676L10.3353 35.4879C11.7025 34.941 12.5619 34.7457 13.9877 34.6969C16.1361 34.609 17.5716 34.9312 19.5931 35.9371C21.1947 36.7476 21.517 36.7965 25.5306 36.9136C27.4447 36.9722 29.2123 37.0601 29.4564 37.109C30.931 37.4019 32.2787 38.3492 33.0111 39.5894C33.099 39.7359 33.4799 39.5797 36.4095 38.1929C38.2259 37.3336 39.9349 36.5621 40.2084 36.4644C40.9603 36.2203 42.308 36.3082 43.0599 36.65C43.8021 36.9918 44.3783 37.4703 44.7689 38.0465C45.1595 38.6324 45.1693 39.0328 44.808 39.3746C44.5638 39.5992 42.4447 40.9761 32.4545 47.4215C29.7396 49.1695 29.1146 49.4722 27.4935 49.8043C26.6049 49.9898 24.9642 50.0386 24.0756 49.9117C23.6263 49.8433 20.9017 49.1207 18.0209 48.3101C13.4053 47.0118 12.3595 46.6827 11.48 46.9347C11.1555 47.0276 10.8537 47.1996 10.4037 47.4312L9.73491 47.7801C9.45004 47.9288 9.25514 48.2065 9.21227 48.525C9.17321 48.8668 9.07555 49.1207 8.9193 49.2867C8.77649 49.4419 8.57392 49.5284 8.36302 49.5242L5.27673 49.4625C1.61462 49.3844 1.30212 49.3453 1.1361 48.8961C1.04821 48.6617 1.37048 34.5894 1.4779 34.1011ZM7.83239 38.4422C7.86703 37.1992 7.89448 36.2143 7.90696 35.6925C7.91343 35.4218 7.77723 35.2646 7.50666 35.2525C6.34203 35.2006 3.07773 35.1334 3.06969 35.1656C3.05016 35.3219 2.70837 47.7047 2.7279 47.7242C2.73766 47.734 3.83141 47.773 5.15954 47.8121L7.14202 47.8683C7.37891 47.875 7.57603 47.6877 7.58141 47.4508C7.58141 47.2164 7.65954 44.3844 7.75719 41.1617C7.78389 40.1828 7.80969 39.2571 7.83239 38.4422ZM18.9779 37.441C18.1869 37.0699 17.2787 36.7183 16.7318 36.5816C14.9642 36.1422 13.2259 36.2008 11.5463 36.7769C10.9896 36.9625 9.71032 37.5875 9.53454 37.7535C9.49005 37.798 9.29149 44.6374 9.29353 45.8885C9.29374 46.0202 9.3657 46.0803 9.48764 46.0306C9.62608 45.9741 9.82843 45.8802 10.0521 45.7711C11.8392 44.8824 12.0638 44.9117 18.6068 46.7867L23.5619 48.2037C23.7407 48.2549 23.9258 48.2808 24.1118 48.2808H25.4427C26.9076 48.2808 27.1322 48.2515 27.9134 48.0172C28.392 47.8707 28.9388 47.6656 29.1341 47.5679C29.7006 47.275 42.972 38.6812 43.0013 38.5738C43.0502 38.4469 42.1713 38.0269 41.7123 37.9586C41.4974 37.9195 41.1361 37.939 40.9017 37.9879C40.6674 38.0465 38.9486 38.8082 37.0834 39.6969L34.2604 41.0311C33.9178 41.193 33.7062 41.545 33.724 41.9234C33.7631 42.4996 33.7435 42.5777 33.4799 42.8707C33.3 43.0691 33.0428 43.1795 32.775 43.1731L28.7142 43.0758C23.3334 42.939 22.8744 42.9097 22.5912 42.6754C22.2689 42.4215 22.2787 41.7476 22.6107 41.484C22.8451 41.2886 22.933 41.2789 25.6869 41.3472C27.2494 41.3765 29.3002 41.4351 30.2572 41.4742C31.4103 41.514 31.8662 41.5471 31.9537 41.3834C32.0166 41.2657 31.8888 41.0461 31.6927 40.6539C31.3314 39.941 30.6966 39.3258 29.9545 38.984C29.3392 38.7008 29.1634 38.691 23.8802 38.4859C21.0677 38.3785 20.8529 38.3297 18.9779 37.441ZM12.9512 17.5292C14.6211 14.1503 17.9023 11.7187 21.6328 11.0839C23.3613 10.791 25.6562 10.9667 27.3164 11.5234C31.4863 12.9199 34.4551 16.3671 35.3144 20.8105C35.4707 21.6113 35.4707 23.9843 35.3144 24.8046C34.8359 27.3535 33.7422 29.4238 31.9453 31.2011C31.4082 31.748 30.6562 32.3925 30.2754 32.6367C25.3437 35.8886 18.9863 35.205 14.9629 30.9667C12.8145 28.7109 11.7305 25.9667 11.7305 22.8027C11.7305 20.8105 12.0918 19.2578 12.9512 17.5292ZM30.9687 15.7421C29.3965 14.1113 27.502 13.0956 25.3047 12.705C24.4746 12.5585 22.3945 12.5878 21.584 12.7636C16.9258 13.7499 13.6055 17.6171 13.3613 22.3242C13.0781 27.7441 17.2383 32.539 22.6289 32.998C27.707 33.4277 32.1992 30.2636 33.5176 25.3417C33.7422 24.4824 33.7715 24.1894 33.7715 22.8027C33.7715 21.4355 33.7422 21.123 33.5176 20.2929C33.0488 18.5253 32.209 17.0312 30.9687 15.7421ZM29.2012 4.34512C29.0452 4.49485 28.957 4.70171 28.957 4.91792V6.75723C28.9668 9.10098 28.9766 9.17911 29.4746 9.36465C29.7773 9.48184 29.9922 9.42325 30.3047 9.14981C30.5195 8.9545 30.5195 8.90567 30.5195 6.767V4.91792C30.5195 4.70171 30.4314 4.49485 30.2754 4.34512C30.1289 4.18887 29.9238 4.10098 29.7383 4.10098C29.5527 4.10098 29.3477 4.18887 29.2012 4.34512ZM16.6523 4.91851C16.6523 4.7023 16.7405 4.49544 16.8965 4.3457C17.043 4.18945 17.248 4.10156 17.4336 4.10156C17.6191 4.10156 17.8242 4.18945 17.9707 4.3457C18.1267 4.49544 18.2148 4.7023 18.2148 4.91851V6.76758V8.62333C18.2148 8.83477 18.1263 9.03654 17.9707 9.17969C17.8242 9.31641 17.6094 9.4043 17.4336 9.4043C17.2578 9.4043 17.043 9.31641 16.8965 9.17969C16.7409 9.03654 16.6523 8.83477 16.6523 8.62333V6.76758V4.91851ZM22.8047 0.815971C22.8047 0.599758 22.8929 0.392899 23.0488 0.243164C23.1953 0.0869141 23.4004 -0.000976562 23.5859 -0.000976562C23.7715 -0.000976562 23.9766 0.0869141 24.123 0.243164C24.279 0.392899 24.3672 0.599758 24.3672 0.815971V4.71582V8.62236C24.3672 8.83379 24.2786 9.03556 24.123 9.17871C23.8105 9.47168 23.3613 9.47168 23.0488 9.17871C22.8932 9.03556 22.8047 8.83379 22.8047 8.62236V4.71582V0.815971ZM23.1465 15.1553C22.8047 15.3408 22.707 15.5459 22.707 16.1221V16.2083C22.707 16.4859 22.5363 16.7349 22.2773 16.835C21.0176 17.3135 20.0703 18.71 20.0703 20.0772C20.0703 21.1221 20.7539 22.3818 21.6133 22.9287C22.2578 23.3486 22.5508 23.4463 23.4199 23.5439C24.2891 23.6514 24.6309 23.7881 24.9824 24.208C26.0078 25.4287 25.1777 27.2451 23.5859 27.2451C22.6094 27.2451 21.8965 26.6104 21.7402 25.5752C21.5938 24.667 20.9199 24.335 20.3535 24.8916C20.0215 25.2236 20.002 25.4775 20.2168 26.3174C20.4902 27.3623 21.4082 28.3779 22.3945 28.7197C22.6973 28.8271 22.707 28.8467 22.707 29.3643C22.707 30.0088 22.8047 30.2041 23.1953 30.3701C23.4297 30.4678 23.5469 30.4678 23.7812 30.3701C24.1719 30.2139 24.2695 30.0088 24.2695 29.3936C24.2695 29.0127 24.3086 28.8857 24.4453 28.8467C26.3496 28.2119 27.4238 26.415 26.9648 24.6084C26.5742 23.1045 25.4902 22.167 23.9082 21.9717C22.9512 21.8447 22.834 21.8057 22.4238 21.5127C21.2227 20.6045 21.6719 18.6611 23.1758 18.2705C24.2402 17.9775 25.4316 18.8857 25.4414 19.999C25.4414 20.4092 25.8906 20.8975 26.2715 20.8975C26.623 20.8975 27.1016 20.4092 27.1016 20.0479C27.1016 19.5107 26.7988 18.6025 26.457 18.0947C26.0371 17.4795 25.5879 17.1279 24.8652 16.835L24.7528 16.7888C24.4871 16.6796 24.307 16.4283 24.2891 16.1416C24.2598 15.5654 24.123 15.292 23.8105 15.1455C23.5176 15.0088 23.4004 15.0186 23.1465 15.1553Z"/>
</mask>
<path fill-rule="evenodd" clip-rule="evenodd" d="M1.4779 34.1011C1.49743 33.984 1.61462 33.7886 1.7318 33.6715C1.92712 33.4761 1.96618 33.4761 5.31579 33.5347C7.19079 33.5738 8.84118 33.6519 9.01696 33.7105C9.47594 33.8472 9.63219 34.2476 9.55407 35.1363C9.52713 35.4506 9.84013 35.6836 10.1335 35.5676L10.3353 35.4879C11.7025 34.941 12.5619 34.7457 13.9877 34.6969C16.1361 34.609 17.5716 34.9312 19.5931 35.9371C21.1947 36.7476 21.517 36.7965 25.5306 36.9136C27.4447 36.9722 29.2123 37.0601 29.4564 37.109C30.931 37.4019 32.2787 38.3492 33.0111 39.5894C33.099 39.7359 33.4799 39.5797 36.4095 38.1929C38.2259 37.3336 39.9349 36.5621 40.2084 36.4644C40.9603 36.2203 42.308 36.3082 43.0599 36.65C43.8021 36.9918 44.3783 37.4703 44.7689 38.0465C45.1595 38.6324 45.1693 39.0328 44.808 39.3746C44.5638 39.5992 42.4447 40.9761 32.4545 47.4215C29.7396 49.1695 29.1146 49.4722 27.4935 49.8043C26.6049 49.9898 24.9642 50.0386 24.0756 49.9117C23.6263 49.8433 20.9017 49.1207 18.0209 48.3101C13.4053 47.0118 12.3595 46.6827 11.48 46.9347C11.1555 47.0276 10.8537 47.1996 10.4037 47.4312L9.73491 47.7801C9.45004 47.9288 9.25514 48.2065 9.21227 48.525C9.17321 48.8668 9.07555 49.1207 8.9193 49.2867C8.77649 49.4419 8.57392 49.5284 8.36302 49.5242L5.27673 49.4625C1.61462 49.3844 1.30212 49.3453 1.1361 48.8961C1.04821 48.6617 1.37048 34.5894 1.4779 34.1011ZM7.83239 38.4422C7.86703 37.1992 7.89448 36.2143 7.90696 35.6925C7.91343 35.4218 7.77723 35.2646 7.50666 35.2525C6.34203 35.2006 3.07773 35.1334 3.06969 35.1656C3.05016 35.3219 2.70837 47.7047 2.7279 47.7242C2.73766 47.734 3.83141 47.773 5.15954 47.8121L7.14202 47.8683C7.37891 47.875 7.57603 47.6877 7.58141 47.4508C7.58141 47.2164 7.65954 44.3844 7.75719 41.1617C7.78389 40.1828 7.80969 39.2571 7.83239 38.4422ZM18.9779 37.441C18.1869 37.0699 17.2787 36.7183 16.7318 36.5816C14.9642 36.1422 13.2259 36.2008 11.5463 36.7769C10.9896 36.9625 9.71032 37.5875 9.53454 37.7535C9.49005 37.798 9.29149 44.6374 9.29353 45.8885C9.29374 46.0202 9.3657 46.0803 9.48764 46.0306C9.62608 45.9741 9.82843 45.8802 10.0521 45.7711C11.8392 44.8824 12.0638 44.9117 18.6068 46.7867L23.5619 48.2037C23.7407 48.2549 23.9258 48.2808 24.1118 48.2808H25.4427C26.9076 48.2808 27.1322 48.2515 27.9134 48.0172C28.392 47.8707 28.9388 47.6656 29.1341 47.5679C29.7006 47.275 42.972 38.6812 43.0013 38.5738C43.0502 38.4469 42.1713 38.0269 41.7123 37.9586C41.4974 37.9195 41.1361 37.939 40.9017 37.9879C40.6674 38.0465 38.9486 38.8082 37.0834 39.6969L34.2604 41.0311C33.9178 41.193 33.7062 41.545 33.724 41.9234C33.7631 42.4996 33.7435 42.5777 33.4799 42.8707C33.3 43.0691 33.0428 43.1795 32.775 43.1731L28.7142 43.0758C23.3334 42.939 22.8744 42.9097 22.5912 42.6754C22.2689 42.4215 22.2787 41.7476 22.6107 41.484C22.8451 41.2886 22.933 41.2789 25.6869 41.3472C27.2494 41.3765 29.3002 41.4351 30.2572 41.4742C31.4103 41.514 31.8662 41.5471 31.9537 41.3834C32.0166 41.2657 31.8888 41.0461 31.6927 40.6539C31.3314 39.941 30.6966 39.3258 29.9545 38.984C29.3392 38.7008 29.1634 38.691 23.8802 38.4859C21.0677 38.3785 20.8529 38.3297 18.9779 37.441ZM12.9512 17.5292C14.6211 14.1503 17.9023 11.7187 21.6328 11.0839C23.3613 10.791 25.6562 10.9667 27.3164 11.5234C31.4863 12.9199 34.4551 16.3671 35.3144 20.8105C35.4707 21.6113 35.4707 23.9843 35.3144 24.8046C34.8359 27.3535 33.7422 29.4238 31.9453 31.2011C31.4082 31.748 30.6562 32.3925 30.2754 32.6367C25.3437 35.8886 18.9863 35.205 14.9629 30.9667C12.8145 28.7109 11.7305 25.9667 11.7305 22.8027C11.7305 20.8105 12.0918 19.2578 12.9512 17.5292ZM30.9687 15.7421C29.3965 14.1113 27.502 13.0956 25.3047 12.705C24.4746 12.5585 22.3945 12.5878 21.584 12.7636C16.9258 13.7499 13.6055 17.6171 13.3613 22.3242C13.0781 27.7441 17.2383 32.539 22.6289 32.998C27.707 33.4277 32.1992 30.2636 33.5176 25.3417C33.7422 24.4824 33.7715 24.1894 33.7715 22.8027C33.7715 21.4355 33.7422 21.123 33.5176 20.2929C33.0488 18.5253 32.209 17.0312 30.9687 15.7421ZM29.2012 4.34512C29.0452 4.49485 28.957 4.70171 28.957 4.91792V6.75723C28.9668 9.10098 28.9766 9.17911 29.4746 9.36465C29.7773 9.48184 29.9922 9.42325 30.3047 9.14981C30.5195 8.9545 30.5195 8.90567 30.5195 6.767V4.91792C30.5195 4.70171 30.4314 4.49485 30.2754 4.34512C30.1289 4.18887 29.9238 4.10098 29.7383 4.10098C29.5527 4.10098 29.3477 4.18887 29.2012 4.34512ZM16.6523 4.91851C16.6523 4.7023 16.7405 4.49544 16.8965 4.3457C17.043 4.18945 17.248 4.10156 17.4336 4.10156C17.6191 4.10156 17.8242 4.18945 17.9707 4.3457C18.1267 4.49544 18.2148 4.7023 18.2148 4.91851V6.76758V8.62333C18.2148 8.83477 18.1263 9.03654 17.9707 9.17969C17.8242 9.31641 17.6094 9.4043 17.4336 9.4043C17.2578 9.4043 17.043 9.31641 16.8965 9.17969C16.7409 9.03654 16.6523 8.83477 16.6523 8.62333V6.76758V4.91851ZM22.8047 0.815971C22.8047 0.599758 22.8929 0.392899 23.0488 0.243164C23.1953 0.0869141 23.4004 -0.000976562 23.5859 -0.000976562C23.7715 -0.000976562 23.9766 0.0869141 24.123 0.243164C24.279 0.392899 24.3672 0.599758 24.3672 0.815971V4.71582V8.62236C24.3672 8.83379 24.2786 9.03556 24.123 9.17871C23.8105 9.47168 23.3613 9.47168 23.0488 9.17871C22.8932 9.03556 22.8047 8.83379 22.8047 8.62236V4.71582V0.815971ZM23.1465 15.1553C22.8047 15.3408 22.707 15.5459 22.707 16.1221V16.2083C22.707 16.4859 22.5363 16.7349 22.2773 16.835C21.0176 17.3135 20.0703 18.71 20.0703 20.0772C20.0703 21.1221 20.7539 22.3818 21.6133 22.9287C22.2578 23.3486 22.5508 23.4463 23.4199 23.5439C24.2891 23.6514 24.6309 23.7881 24.9824 24.208C26.0078 25.4287 25.1777 27.2451 23.5859 27.2451C22.6094 27.2451 21.8965 26.6104 21.7402 25.5752C21.5938 24.667 20.9199 24.335 20.3535 24.8916C20.0215 25.2236 20.002 25.4775 20.2168 26.3174C20.4902 27.3623 21.4082 28.3779 22.3945 28.7197C22.6973 28.8271 22.707 28.8467 22.707 29.3643C22.707 30.0088 22.8047 30.2041 23.1953 30.3701C23.4297 30.4678 23.5469 30.4678 23.7812 30.3701C24.1719 30.2139 24.2695 30.0088 24.2695 29.3936C24.2695 29.0127 24.3086 28.8857 24.4453 28.8467C26.3496 28.2119 27.4238 26.415 26.9648 24.6084C26.5742 23.1045 25.4902 22.167 23.9082 21.9717C22.9512 21.8447 22.834 21.8057 22.4238 21.5127C21.2227 20.6045 21.6719 18.6611 23.1758 18.2705C24.2402 17.9775 25.4316 18.8857 25.4414 19.999C25.4414 20.4092 25.8906 20.8975 26.2715 20.8975C26.623 20.8975 27.1016 20.4092 27.1016 20.0479C27.1016 19.5107 26.7988 18.6025 26.457 18.0947C26.0371 17.4795 25.5879 17.1279 24.8652 16.835L24.7528 16.7888C24.4871 16.6796 24.307 16.4283 24.2891 16.1416C24.2598 15.5654 24.123 15.292 23.8105 15.1455C23.5176 15.0088 23.4004 15.0186 23.1465 15.1553Z" fill="#219653"/>
<path d="M1.7318 33.6715L1.37825 33.3179H1.37825L1.7318 33.6715ZM1.4779 34.1011L1.97109 34.1833L1.96898 34.196L1.96622 34.2086L1.4779 34.1011ZM5.31579 33.5347L5.32453 33.0348L5.3262 33.0349L5.31579 33.5347ZM9.01696 33.7105L8.87422 34.1897L8.8665 34.1874L8.85885 34.1849L9.01696 33.7105ZM10.3353 35.4879L10.521 35.9521L10.5191 35.9528L10.3353 35.4879ZM13.9877 34.6969L14.0081 35.1964L14.0048 35.1966L13.9877 34.6969ZM19.5931 35.9371L19.8159 35.4894L19.8189 35.491L19.5931 35.9371ZM25.5306 36.9136L25.5452 36.4139L25.5459 36.4139L25.5306 36.9136ZM29.4564 37.109L29.359 37.5994L29.3584 37.5993L29.4564 37.109ZM33.0111 39.5894L32.5823 39.8467L32.5806 39.8437L33.0111 39.5894ZM36.4095 38.1929L36.1956 37.741L36.1957 37.741L36.4095 38.1929ZM40.2084 36.4644L40.0402 35.9936L40.047 35.9911L40.054 35.9889L40.2084 36.4644ZM43.0599 36.65L43.2668 36.1948L43.2691 36.1958L43.0599 36.65ZM44.7689 38.0465L45.1828 37.7659L45.1849 37.7691L44.7689 38.0465ZM44.808 39.3746L45.1516 39.7379L45.1465 39.7426L44.808 39.3746ZM32.4545 47.4215L32.7255 47.8416L32.7251 47.8419L32.4545 47.4215ZM27.4935 49.8043L27.3913 49.3148L27.3932 49.3144L27.4935 49.8043ZM24.0756 49.9117L24.0048 50.4067L24.0003 50.406L24.0756 49.9117ZM18.0209 48.3101L18.1563 47.8288L18.1563 47.8288L18.0209 48.3101ZM11.48 46.9347L11.3423 46.454V46.454L11.48 46.9347ZM10.4037 47.4312L10.1724 46.9879L10.1749 46.9866L10.4037 47.4312ZM5.27673 49.4625L5.26673 49.9624L5.26606 49.9624L5.27673 49.4625ZM1.1361 48.8961L1.60427 48.7205L1.6051 48.7227L1.1361 48.8961ZM7.83239 38.4422L8.3322 38.4562L7.83239 38.4422ZM3.06969 35.1656L2.57356 35.1036L2.5773 35.0736L2.58462 35.0443L3.06969 35.1656ZM5.15954 47.8121L5.14537 48.3119L5.14484 48.3119L5.15954 47.8121ZM7.75719 41.1617L8.25701 41.1753L8.25697 41.1768L7.75719 41.1617ZM16.7318 36.5816L16.8524 36.0964L16.8531 36.0965L16.7318 36.5816ZM18.9779 37.441L19.1903 36.9883L19.192 36.9892L18.9779 37.441ZM11.5463 36.7769L11.7085 37.2499L11.7044 37.2513L11.5463 36.7769ZM9.53454 37.7535L9.18098 37.3999L9.18603 37.3949L9.19123 37.39L9.53454 37.7535ZM10.0521 45.7711L10.2748 46.2188L10.2713 46.2205L10.0521 45.7711ZM18.6068 46.7867L18.4693 47.2674L18.4691 47.2673L18.6068 46.7867ZM27.9134 48.0172L28.0598 48.4953L28.0571 48.4961L27.9134 48.0172ZM29.1341 47.5679L29.3639 48.0121L29.3578 48.0152L29.1341 47.5679ZM43.0013 38.5738L42.519 38.4422L42.5256 38.4179L42.5347 38.3943L43.0013 38.5738ZM41.7123 37.9586L41.6386 38.4531L41.6307 38.4519L41.6228 38.4505L41.7123 37.9586ZM40.9017 37.9879L40.7805 37.5028L40.7901 37.5004L40.7997 37.4984L40.9017 37.9879ZM37.0834 39.6969L37.2984 40.1482L37.297 40.1489L37.0834 39.6969ZM28.7142 43.0758L28.7022 43.5756L28.7015 43.5756L28.7142 43.0758ZM22.5912 42.6754L22.9007 42.2825L22.91 42.2902L22.5912 42.6754ZM22.6107 41.484L22.9309 41.8682L22.9217 41.8755L22.6107 41.484ZM25.6869 41.3472L25.6775 41.8472L25.6745 41.8471L25.6869 41.3472ZM30.2572 41.4742L30.24 41.9739L30.2368 41.9738L30.2572 41.4742ZM31.9537 41.3834L31.5127 41.1478V41.1478L31.9537 41.3834ZM31.6927 40.6539L32.1387 40.4278L32.14 40.4303L31.6927 40.6539ZM29.9545 38.984L30.1635 38.5298L30.1636 38.5298L29.9545 38.984ZM23.8802 38.4859L23.8993 37.9863L23.8996 37.9863L23.8802 38.4859ZM21.6328 11.0839L21.5489 10.591L21.5493 10.591L21.6328 11.0839ZM12.9512 17.5292L13.3994 17.7508L13.3989 17.7518L12.9512 17.5292ZM27.3164 11.5234L27.1576 11.9975L27.1575 11.9974L27.3164 11.5234ZM35.3144 20.8105L34.8237 20.9062L34.8235 20.9054L35.3144 20.8105ZM35.3144 24.8046L34.823 24.7124L34.8233 24.7111L35.3144 24.8046ZM31.9453 31.2011L31.5885 30.8507L31.5937 30.8456L31.9453 31.2011ZM30.2754 32.6367L30.0001 32.2192L30.0056 32.2157L30.2754 32.6367ZM14.9629 30.9667L15.325 30.6219L15.3255 30.6225L14.9629 30.9667ZM25.3047 12.705L25.3916 12.2126L25.3922 12.2127L25.3047 12.705ZM30.9687 15.7421L31.3287 15.3951L31.3291 15.3955L30.9687 15.7421ZM21.584 12.7636L21.69 13.2523L21.6876 13.2528L21.584 12.7636ZM13.3613 22.3242L13.8607 22.3501L13.8606 22.3503L13.3613 22.3242ZM22.6289 32.998L22.5867 33.4962L22.5865 33.4962L22.6289 32.998ZM33.5176 25.3417L34.0013 25.4682L34.0005 25.4711L33.5176 25.3417ZM33.5176 20.2929L33.0349 20.4235L33.0343 20.4211L33.5176 20.2929ZM28.957 6.75723L28.457 6.75932V6.75723H28.957ZM29.4746 9.36465L29.6492 8.89608L29.6551 8.89837L29.4746 9.36465ZM30.3047 9.14981L30.6411 9.51985L30.6339 9.5261L30.3047 9.14981ZM23.1465 15.1553L22.9079 14.7158L22.9094 14.715L23.1465 15.1553ZM21.6133 22.9287L21.8817 22.5069L21.8862 22.5098L21.6133 22.9287ZM23.4199 23.5439L23.4758 23.047L23.4813 23.0477L23.4199 23.5439ZM24.9824 24.208L24.5996 24.5296L24.599 24.529L24.9824 24.208ZM21.7402 25.5752L22.2339 25.4956L22.2346 25.5006L21.7402 25.5752ZM20.3535 24.8916L19.9999 24.538L20.003 24.535L20.3535 24.8916ZM20.2168 26.3174L19.7331 26.444L19.7324 26.4413L20.2168 26.3174ZM22.3945 28.7197L22.5583 28.2473L22.5617 28.2485L22.3945 28.7197ZM23.1953 30.3701L23.003 30.8317L22.9997 30.8303L23.1953 30.3701ZM23.7812 30.3701L23.5889 29.9085L23.5956 29.9059L23.7812 30.3701ZM24.4453 28.8467L24.6034 29.321L24.5931 29.3245L24.5827 29.3274L24.4453 28.8467ZM26.9648 24.6084L27.4488 24.4827L27.4494 24.4853L26.9648 24.6084ZM23.9082 21.9717L23.8469 22.4679L23.8425 22.4673L23.9082 21.9717ZM22.4238 21.5127L22.1331 21.9197L22.1223 21.9115L22.4238 21.5127ZM23.1758 18.2705L23.3085 18.7526L23.3015 18.7545L23.1758 18.2705ZM25.4414 19.999L25.9414 19.9946V19.999H25.4414ZM26.457 18.0947L26.87 17.8129L26.8718 17.8155L26.457 18.0947ZM24.8652 16.835L24.6774 17.2983L24.6753 17.2975L24.8652 16.835ZM23.8105 15.1455L24.022 14.6924L24.0228 14.6928L23.8105 15.1455ZM23.5619 48.2037L23.4244 48.6845L23.5619 48.2037ZM7.90696 35.6925L7.4071 35.6806L7.90696 35.6925ZM7.50666 35.2525L7.52896 34.753L7.50666 35.2525ZM34.2604 41.0311L34.0467 40.579L34.2604 41.0311ZM9.29353 45.8885L9.79353 45.8877L9.29353 45.8885ZM9.48764 46.0306L9.29871 45.5676L9.48764 46.0306ZM9.73491 47.7801L9.9662 48.2234L9.73491 47.7801ZM7.14202 47.8683L7.15619 47.3685L7.14202 47.8683ZM24.7528 16.7888L24.9428 16.3263L24.7528 16.7888ZM10.1335 35.5676L9.94969 35.1027L10.1335 35.5676ZM2.08536 34.025C2.06155 34.0488 2.02751 34.0921 1.99816 34.1416C1.98428 34.1649 1.97486 34.184 1.9695 34.1966C1.96292 34.2121 1.96724 34.2065 1.97109 34.1833L0.984701 34.0189C1.00959 33.8696 1.08051 33.7284 1.1383 33.631C1.20172 33.5242 1.28487 33.4113 1.37825 33.3179L2.08536 34.025ZM5.30704 34.0347C3.62215 34.0052 2.79481 33.9911 2.35979 34.0075C2.25374 34.0115 2.18009 34.0171 2.12816 34.0233C2.10268 34.0264 2.08465 34.0294 2.07229 34.0318C2.06621 34.033 2.06184 34.0341 2.05893 34.0348C2.05603 34.0355 2.05472 34.0359 2.05473 34.0359C2.08579 34.0261 2.11539 33.995 2.08536 34.025L1.37825 33.3179C1.44588 33.2503 1.5536 33.146 1.75159 33.083C1.90544 33.034 2.09322 33.0169 2.32208 33.0082C2.79282 32.9905 3.65982 33.0057 5.32453 33.0348L5.30704 34.0347ZM8.85885 34.1849C8.89321 34.1963 8.89922 34.1931 8.82519 34.1842C8.76932 34.1776 8.69077 34.1702 8.58954 34.1623C8.38791 34.1467 8.11212 34.1305 7.77989 34.1147C7.11632 34.0833 6.23952 34.0541 5.30537 34.0346L5.3262 33.0349C6.26706 33.0545 7.15295 33.0839 7.82728 33.1159C8.16399 33.1318 8.45094 33.1486 8.66679 33.1653C8.7743 33.1737 8.86818 33.1823 8.94354 33.1913C9.00073 33.1981 9.09677 33.2101 9.17507 33.2362L8.85885 34.1849ZM9.05599 35.0925C9.09343 34.6667 9.06469 34.438 9.01949 34.3189C8.9914 34.2449 8.96345 34.2163 8.87422 34.1897L9.1597 33.2313C9.52946 33.3415 9.80912 33.5814 9.95437 33.964C10.0825 34.3014 10.0928 34.7172 10.0521 35.1801L9.05599 35.0925ZM10.5191 35.9528L10.3174 36.0326L9.94969 35.1027L10.1515 35.0229L10.5191 35.9528ZM14.0048 35.1966C12.642 35.2432 11.8395 35.4247 10.521 35.9521L10.1496 35.0236C11.5655 34.4573 12.4817 34.2481 13.9705 34.1971L14.0048 35.1966ZM19.3704 36.3847C17.4193 35.4139 16.067 35.1122 14.0081 35.1964L13.9672 34.1973C16.2052 34.1057 17.724 34.4485 19.8159 35.4894L19.3704 36.3847ZM25.516 37.4134C23.5232 37.3553 22.3997 37.3136 21.5765 37.1788C20.7174 37.0381 20.1817 36.7953 19.3674 36.3832L19.8189 35.491C20.6061 35.8894 21.0323 36.0763 21.7382 36.192C22.4799 36.3135 23.5243 36.3549 25.5452 36.4139L25.516 37.4134ZM29.3584 37.5993C29.3609 37.5998 29.3538 37.5983 29.3313 37.5955C29.3108 37.593 29.2835 37.59 29.2487 37.5867C29.1792 37.5801 29.0873 37.5727 28.9744 37.5649C28.7491 37.5492 28.4491 37.532 28.0949 37.5143C27.387 37.4791 26.4698 37.4426 25.5153 37.4134L25.5459 36.4139C26.5055 36.4433 27.4292 36.48 28.1446 36.5156C28.502 36.5334 28.8093 36.5509 29.0439 36.5673C29.2618 36.5825 29.4549 36.5988 29.5545 36.6187L29.3584 37.5993ZM32.5806 39.8437C31.9229 38.7301 30.6987 37.8656 29.359 37.5994L29.5538 36.6185C31.1633 36.9383 32.6344 37.9683 33.4416 39.3352L32.5806 39.8437ZM36.6235 38.6449C35.164 39.3357 34.3221 39.7283 33.8347 39.9286C33.5999 40.0251 33.4054 40.0951 33.2498 40.1212C33.1713 40.1343 33.0525 40.1457 32.9244 40.109C32.7697 40.0646 32.6539 39.9659 32.5824 39.8467L33.4398 39.3322C33.3903 39.2496 33.3056 39.178 33.2 39.1477C33.121 39.1251 33.0693 39.1375 33.0846 39.1349C33.1167 39.1295 33.217 39.1013 33.4546 39.0037C33.912 38.8157 34.7254 38.4369 36.1956 37.741L36.6235 38.6449ZM40.3765 36.9353C40.1326 37.0224 38.4521 37.7797 36.6234 38.6449L36.1957 37.741C37.9998 36.8874 39.7373 36.1017 40.0402 35.9936L40.3765 36.9353ZM42.853 37.1052C42.551 36.9679 42.0912 36.8683 41.6017 36.8364C41.1104 36.8044 40.6556 36.8449 40.3628 36.94L40.054 35.9889C40.5131 35.8398 41.1081 35.8022 41.6666 35.8385C42.2269 35.875 42.8169 35.9903 43.2668 36.1948L42.853 37.1052ZM44.3551 38.327C44.0217 37.8353 43.5206 37.4126 42.8508 37.1041L43.2691 36.1958C44.0836 36.5709 44.7349 37.1053 45.1828 37.7659L44.3551 38.327ZM44.4644 39.0114C44.5641 38.9171 44.5719 38.8618 44.5706 38.8162C44.5684 38.7382 44.5277 38.5861 44.3529 38.3238L45.1849 37.7691C45.4007 38.0928 45.5602 38.4339 45.5702 38.788C45.5811 39.1745 45.4132 39.4903 45.1516 39.7378L44.4644 39.0114ZM32.1834 47.0013C37.1788 43.7785 40.2052 41.8235 42.0132 40.6463C42.9175 40.0574 43.5149 39.6645 43.9008 39.4052C44.094 39.2755 44.2315 39.181 44.327 39.1131C44.3747 39.0791 44.4098 39.0533 44.435 39.034C44.4619 39.0134 44.4706 39.0055 44.4694 39.0066L45.1465 39.7426C45.0504 39.831 44.8325 39.9841 44.4584 40.2353C44.0661 40.4989 43.4636 40.8951 42.5588 41.4843C40.7487 42.6629 37.7203 44.6192 32.7255 47.8416L32.1834 47.0013ZM27.3932 49.3144C28.1803 49.1532 28.6988 49.005 29.3472 48.6932C30.013 48.3731 30.8226 47.8775 32.1838 47.0011L32.7251 47.8419C31.3715 48.7134 30.5111 49.2432 29.7805 49.5945C29.0324 49.9541 28.4278 50.1233 27.5938 50.2941L27.3932 49.3144ZM24.1463 49.4167C24.9782 49.5356 26.5603 49.4883 27.3913 49.3148L27.5957 50.2937C26.6494 50.4913 24.9503 50.5417 24.0048 50.4067L24.1463 49.4167ZM18.1563 47.8288C19.5947 48.2335 20.9936 48.6161 22.088 48.9059C23.201 49.2005 23.9601 49.3884 24.1508 49.4174L24.0003 50.406C23.7418 50.3667 22.914 50.159 21.8321 49.8726C20.7318 49.5813 19.3279 49.1973 17.8854 48.7914L18.1563 47.8288ZM11.3423 46.454C11.9082 46.2919 12.4931 46.3362 13.459 46.5532C14.4243 46.7701 15.8588 47.1826 18.1563 47.8288L17.8855 48.7915C15.5674 48.1394 14.1712 47.7381 13.2398 47.5289C12.309 47.3198 11.9312 47.3255 11.6177 47.4153L11.3423 46.454ZM10.1749 46.9866C10.5929 46.7715 10.9566 46.5645 11.3423 46.454L11.6177 47.4153C11.3545 47.4907 11.1146 47.6277 10.6325 47.8758L10.1749 46.9866ZM9.50363 47.3369L10.1724 46.9879L10.635 47.8745L9.9662 48.2234L9.50363 47.3369ZM8.5552 48.944C8.60848 48.8874 8.68278 48.7546 8.71551 48.4682L9.70904 48.5818C9.66364 48.979 9.54263 49.354 9.2834 49.6294L8.5552 48.944ZM5.28672 48.9626L8.37302 49.0243L8.35302 50.0241L5.26673 49.9624L5.28672 48.9626ZM1.6051 48.7227C1.61809 48.7579 1.62286 48.7619 1.61832 48.7555C1.61563 48.7518 1.61174 48.7472 1.60714 48.7429C1.60264 48.7387 1.60007 48.7372 1.60143 48.738C1.61775 48.7482 1.69888 48.7871 1.96274 48.823C2.48369 48.8938 3.44077 48.9232 5.28739 48.9626L5.26606 49.9624C3.45057 49.9236 2.42034 49.8944 1.82802 49.8139C1.53524 49.7741 1.27823 49.7142 1.07483 49.5882C0.83514 49.4397 0.729913 49.2393 0.667104 49.0694L1.6051 48.7227ZM1.96622 34.2086C1.96976 34.1925 1.96371 34.2299 1.95439 34.3768C1.94645 34.502 1.93769 34.6745 1.92829 34.8893C1.9095 35.3183 1.88851 35.9066 1.86656 36.6017C1.82268 37.9914 1.77511 39.802 1.73362 41.6053C1.69214 43.4087 1.65677 45.2034 1.63727 46.5613C1.62751 47.2406 1.62175 47.8089 1.62115 48.2138C1.62084 48.4168 1.62184 48.5758 1.62416 48.6861C1.62534 48.7419 1.62677 48.7809 1.62819 48.8051C1.62893 48.8177 1.62937 48.8211 1.62906 48.8184C1.62892 48.8172 1.62808 48.8098 1.62607 48.7987C1.625 48.7928 1.61937 48.7608 1.60427 48.7205L0.667936 49.0716C0.641926 49.0023 0.636027 48.9363 0.635495 48.9317C0.63284 48.9084 0.631127 48.8846 0.629901 48.8637C0.627393 48.8209 0.625654 48.7674 0.624386 48.7072C0.621825 48.5854 0.620841 48.4176 0.621148 48.2123C0.621763 47.8009 0.627598 47.2276 0.637373 46.547C0.656932 45.1852 0.692366 43.3874 0.733889 41.5823C0.775413 39.7773 0.823057 37.9636 0.867063 36.5701C0.889058 35.8736 0.91019 35.2806 0.929243 34.8456C0.938757 34.6284 0.947849 34.4483 0.956393 34.3136C0.963554 34.2006 0.972611 34.0708 0.989576 33.9937L1.96622 34.2086ZM8.40681 35.7045C8.3943 36.2275 8.36682 37.2138 8.3322 38.4562L7.33259 38.4283C7.36724 37.1847 7.39465 36.2011 7.4071 35.6806L8.40681 35.7045ZM2.58462 35.0443C2.64131 34.8176 2.82427 34.7294 2.83893 34.7217C2.88677 34.6967 2.92789 34.6853 2.94297 34.6812C2.97797 34.6718 3.00726 34.6681 3.01716 34.6668C3.04257 34.6636 3.06701 34.6622 3.08247 34.6614C3.11709 34.6596 3.16099 34.6586 3.20871 34.658C3.3062 34.6568 3.44298 34.657 3.60655 34.6583C3.93478 34.6609 4.38222 34.668 4.86445 34.6776C5.82772 34.6969 6.94012 34.7268 7.52896 34.753L7.48437 35.752C6.90857 35.7263 5.8065 35.6967 4.84446 35.6774C4.36403 35.6678 3.9211 35.6609 3.59862 35.6583C3.43684 35.657 3.30818 35.6569 3.22107 35.6579C3.17648 35.6585 3.14828 35.6593 3.13364 35.6601C3.12447 35.6605 3.12998 35.6605 3.14249 35.6589C3.14594 35.6585 3.17029 35.6556 3.2019 35.6471C3.21529 35.6435 3.2551 35.6325 3.30202 35.608C3.31577 35.6008 3.4982 35.5131 3.55477 35.2869L2.58462 35.0443ZM2.37434 48.0777C2.31411 48.0049 2.25549 47.8881 2.24478 47.8532C2.2403 47.8351 2.23455 47.806 2.23282 47.7949C2.22999 47.7753 2.22893 47.7595 2.22859 47.7544C2.22773 47.7414 2.22746 47.73 2.22735 47.7248C2.22709 47.7124 2.22707 47.6984 2.22711 47.6853C2.22719 47.6581 2.22764 47.6202 2.22836 47.5738C2.22983 47.4804 2.23253 47.345 2.2363 47.1743C2.24383 46.8327 2.25567 46.3461 2.27048 45.763C2.30009 44.5964 2.34161 43.0415 2.38434 41.4825C2.42707 39.9234 2.47102 38.36 2.50551 37.1765C2.52276 36.5848 2.53765 36.0877 2.54885 35.7335C2.55444 35.5565 2.55913 35.4146 2.56275 35.3142C2.5656 35.2348 2.56873 35.1422 2.57356 35.1036L3.56583 35.2276C3.56822 35.2086 3.56639 35.231 3.5621 35.3501C3.55857 35.4483 3.55393 35.5885 3.54835 35.7651C3.53719 36.1181 3.52233 36.6142 3.50509 37.2056C3.47062 38.3884 3.42668 39.9512 3.38396 41.5099C3.34124 43.0685 3.29975 44.6227 3.27016 45.7883C3.25536 46.3712 3.24355 46.8565 3.23605 47.1964C3.2323 47.3665 3.22965 47.4993 3.22824 47.5895C3.22753 47.6349 3.22717 47.6677 3.2271 47.6884C3.22709 47.6935 3.22709 47.6974 3.2271 47.7002C3.22712 47.7033 3.22714 47.7043 3.22713 47.7038C3.22713 47.7035 3.2271 47.7023 3.22703 47.7002C3.22696 47.6985 3.2268 47.6943 3.22642 47.6886C3.22619 47.6851 3.22525 47.6706 3.22255 47.6519C3.22089 47.6413 3.21521 47.6125 3.2108 47.5947C3.20016 47.5601 3.14161 47.4434 3.08145 47.3706L2.37434 48.0777ZM5.14484 48.3119C4.48008 48.2923 3.87345 48.2728 3.43134 48.2568C3.21051 48.2489 3.02956 48.2418 2.90257 48.236C2.83951 48.2332 2.78742 48.2306 2.74968 48.2282C2.73156 48.2271 2.71239 48.2258 2.69553 48.2242C2.68823 48.2235 2.67378 48.2221 2.65738 48.2196C2.65042 48.2186 2.63221 48.2157 2.60982 48.2102C2.59924 48.2076 2.57671 48.2018 2.54927 48.1913C2.53895 48.1873 2.45348 48.1569 2.37434 48.0777L3.08145 47.3706C3.00247 47.2917 2.91728 47.2614 2.90737 47.2576C2.88036 47.2472 2.85837 47.2416 2.84848 47.2391C2.82744 47.234 2.81111 47.2315 2.80655 47.2308C2.79978 47.2298 2.7948 47.2292 2.79279 47.229C2.79045 47.2287 2.78905 47.2286 2.78892 47.2285C2.78876 47.2285 2.79052 47.2287 2.79492 47.229C2.7991 47.2293 2.80465 47.2297 2.81174 47.2301C2.84088 47.2319 2.88622 47.2343 2.94781 47.2371C3.07016 47.2426 3.24748 47.2496 3.46733 47.2575C3.90656 47.2733 4.51087 47.2928 5.17424 47.3123L5.14484 48.3119ZM7.12786 48.3681L5.14537 48.3119L5.1737 47.3123L7.15619 47.3685L7.12786 48.3681ZM8.25697 41.1768C8.1591 44.4064 8.08141 47.2263 8.08141 47.4508H7.08141C7.08141 47.2064 7.15998 44.3623 7.25742 41.1466L8.25697 41.1768ZM8.3322 38.4562C8.30949 39.271 8.2837 40.1966 8.25701 41.1753L7.25738 41.1481C7.28408 40.169 7.30988 39.2431 7.33259 38.4283L8.3322 38.4562ZM16.8531 36.0965C17.4453 36.2446 18.3869 36.6114 19.1903 36.9883L18.7655 37.8937C17.9869 37.5283 17.112 37.1921 16.6105 37.0667L16.8531 36.0965ZM11.384 36.304C13.1592 35.695 14.9959 35.6348 16.8524 36.0964L16.6112 37.0668C14.9325 36.6495 13.2927 36.7065 11.7085 37.2499L11.384 36.304ZM9.19123 37.39C9.25151 37.3331 9.32698 37.2832 9.38199 37.2485C9.44584 37.2083 9.52137 37.1644 9.6027 37.1194C9.76594 37.0291 9.96794 36.9256 10.1788 36.8229C10.5941 36.6208 11.0773 36.4062 11.3881 36.3026L11.7044 37.2513C11.4586 37.3332 11.0238 37.5238 10.6164 37.7221C10.4158 37.8197 10.2303 37.9151 10.0868 37.9945C10.0148 38.0343 9.95718 38.068 9.91525 38.0945C9.86447 38.1265 9.86151 38.1324 9.87785 38.117L9.19123 37.39ZM8.79353 45.8893C8.79249 45.2543 8.84194 43.2227 8.8968 41.3539C8.92429 40.4173 8.95326 39.5177 8.97817 38.8488C8.99061 38.5147 9.0021 38.2365 9.01195 38.0395C9.01684 37.9417 9.02149 37.8605 9.02583 37.8017C9.02793 37.7732 9.03038 37.744 9.03335 37.7188C9.03469 37.7074 9.03719 37.6875 9.04149 37.6653C9.04344 37.6553 9.04793 37.6332 9.05626 37.6065C9.06039 37.5933 9.06828 37.5698 9.08135 37.542C9.09114 37.5211 9.12069 37.4602 9.18098 37.3999L9.88809 38.107C9.94804 38.0471 9.97724 37.9868 9.98667 37.9667C9.99938 37.9396 10.0069 37.9171 10.0107 37.905C10.0183 37.8807 10.022 37.8618 10.0232 37.8557C10.026 37.8415 10.0268 37.8327 10.0265 37.8356C10.0261 37.8389 10.0249 37.8509 10.0231 37.8752C10.0197 37.922 10.0155 37.9936 10.0107 38.0895C10.0012 38.28 9.98987 38.5531 9.97748 38.886C9.95271 39.5512 9.92382 40.448 9.89637 41.3832C9.84133 43.258 9.79252 45.2717 9.79353 45.8877L8.79353 45.8893ZM10.2713 46.2205C10.0455 46.3306 9.83098 46.4305 9.67656 46.4935L9.29871 45.5676C9.42118 45.5176 9.61135 45.4298 9.8329 45.3217L10.2713 46.2205ZM18.4691 47.2673C15.1747 46.3233 13.5335 45.8636 12.4869 45.739C11.9826 45.679 11.6454 45.7015 11.343 45.7765C11.0285 45.8545 10.7248 45.995 10.2747 46.2188L9.82949 45.3234C10.273 45.1028 10.6676 44.9137 11.1022 44.8059C11.549 44.6951 12.012 44.6754 12.6051 44.746C13.7534 44.8827 15.496 45.3751 18.7445 46.306L18.4691 47.2673ZM23.4244 48.6845L18.4693 47.2674L18.7443 46.306L23.6993 47.723L23.4244 48.6845ZM25.4427 48.7808H24.1118V47.7808H25.4427V48.7808ZM28.0571 48.4961C27.6581 48.6158 27.3717 48.6923 26.9885 48.734C26.62 48.774 26.1703 48.7808 25.4427 48.7808V47.7808C26.18 47.7808 26.575 47.773 26.8804 47.7398C27.171 47.7082 27.3875 47.6529 27.7698 47.5383L28.0571 48.4961ZM29.3578 48.0152C29.1245 48.1318 28.5458 48.3465 28.0598 48.4953L27.7671 47.5391C28.2381 47.3949 28.7531 47.1994 28.9105 47.1207L29.3578 48.0152ZM43.4837 38.7054C43.4571 38.8028 43.4071 38.8667 43.3979 38.8788C43.38 38.9022 43.3636 38.9194 43.355 38.9281C43.3372 38.9463 43.321 38.9602 43.3128 38.9671C43.2946 38.9825 43.2754 38.9972 43.2599 39.0087C43.2271 39.0333 43.1835 39.0643 43.1327 39.0996C43.03 39.1711 42.8827 39.2711 42.6987 39.3944C42.3299 39.6416 41.8052 39.9883 41.1763 40.4012C39.918 41.2273 38.2377 42.3214 36.5411 43.4209C34.8444 44.5204 33.1307 45.626 31.8055 46.4751C31.143 46.8996 30.5768 47.2605 30.1582 47.5246C29.7539 47.7798 29.4592 47.9627 29.3639 48.0121L28.9044 47.1238C28.9039 47.1241 28.9087 47.1216 28.9214 47.1143C28.9331 47.1076 28.9484 47.0987 28.9678 47.0871C29.0065 47.0641 29.0575 47.033 29.1206 46.9941C29.2467 46.9165 29.4166 46.8102 29.6246 46.6789C30.0403 46.4166 30.6042 46.0572 31.266 45.6331C32.5893 44.7852 34.3015 43.6806 35.9972 42.5817C37.693 41.4827 39.3714 40.3899 40.6275 39.5653C41.2557 39.1529 41.7771 38.8082 42.1419 38.5638C42.3247 38.4413 42.4661 38.3453 42.5612 38.279C42.6095 38.2454 42.6421 38.222 42.6613 38.2077C42.6718 38.1999 42.6724 38.199 42.6679 38.2028C42.6666 38.204 42.6556 38.2132 42.6414 38.2276C42.6347 38.2345 42.6197 38.2501 42.6029 38.2722C42.5947 38.2828 42.5453 38.3457 42.519 38.4422L43.4837 38.7054ZM41.7859 37.464C42.0871 37.5089 42.4735 37.6549 42.7627 37.793C42.9104 37.8636 43.058 37.9439 43.1731 38.025C43.2272 38.0632 43.2989 38.1185 43.3593 38.1894C43.3893 38.2245 43.4349 38.2846 43.4667 38.3674C43.5 38.4542 43.5284 38.5962 43.468 38.7533L42.5347 38.3943C42.4804 38.5355 42.5076 38.6594 42.5332 38.726C42.5573 38.7887 42.5886 38.8267 42.5983 38.8381C42.6181 38.8614 42.6256 38.8626 42.597 38.8424C42.5467 38.8069 42.455 38.7543 42.3318 38.6954C42.079 38.5747 41.7964 38.4766 41.6386 38.4531L41.7859 37.464ZM40.7997 37.4984C41.0766 37.4407 41.5056 37.4128 41.8017 37.4666L41.6228 38.4505C41.4892 38.4262 41.1956 38.4374 41.0037 38.4774L40.7997 37.4984ZM36.8683 39.2455C37.8043 38.7995 38.7041 38.3852 39.4004 38.0745C39.7483 37.9192 40.0472 37.7891 40.2753 37.6935C40.4839 37.6061 40.6762 37.5289 40.7805 37.5028L41.023 38.4729C41.0277 38.4718 41.0023 38.4791 40.9267 38.5082C40.8599 38.534 40.7712 38.57 40.6618 38.6158C40.4434 38.7073 40.1521 38.8341 39.8079 38.9877C39.1199 39.2947 38.2277 39.7055 37.2984 40.1482L36.8683 39.2455ZM34.0467 40.579L36.8697 39.2448L37.297 40.1489L34.474 41.4831L34.0467 40.579ZM33.1082 42.5362C33.1723 42.4649 33.2019 42.428 33.2185 42.403C33.2301 42.3856 33.2305 42.3814 33.2312 42.3787C33.2335 42.3699 33.2391 42.3422 33.2394 42.2708C33.2398 42.198 33.2349 42.1013 33.2251 41.9572L34.2228 41.8896C34.2409 42.1565 34.2566 42.4064 34.1997 42.6278C34.1336 42.8849 33.9851 43.0567 33.8515 43.2052L33.1082 42.5362ZM28.7262 42.5759L32.787 42.6732L32.7631 43.6729L28.7022 43.5756L28.7262 42.5759ZM22.91 42.2902C22.9107 42.2908 22.9176 42.3064 23.0212 42.33C23.1469 42.3584 23.3651 42.3866 23.7737 42.4132C24.5839 42.4661 26.0312 42.5074 28.7269 42.5759L28.7015 43.5756C26.0164 43.5074 24.5438 43.4657 23.7085 43.4111C22.915 43.3593 22.5585 43.2973 22.2724 43.0606L22.91 42.2902ZM22.9217 41.8755C22.9188 41.8777 22.9022 41.893 22.8851 41.9347C22.8682 41.9762 22.8565 42.0309 22.8555 42.0912C22.8546 42.1516 22.8647 42.204 22.8789 42.2413C22.8932 42.2789 22.9057 42.2866 22.9006 42.2826L22.2817 43.0681C21.9551 42.8108 21.8505 42.4002 21.8556 42.0755C21.8608 41.7479 21.9791 41.347 22.2998 41.0924L22.9217 41.8755ZM25.6745 41.8471C24.287 41.8126 23.6 41.7989 23.2271 41.8162C23.0398 41.8249 22.9756 41.8403 22.9572 41.8462C22.9538 41.8473 22.9574 41.8462 22.9616 41.8436C22.9621 41.8433 22.9568 41.8464 22.9308 41.8681L22.2906 41.0998C22.3667 41.0365 22.4743 40.9515 22.6487 40.895C22.7988 40.8463 22.9727 40.8269 23.1808 40.8173C23.599 40.7979 24.3329 40.8135 25.6993 40.8474L25.6745 41.8471ZM30.2368 41.9738C29.2845 41.9349 27.2376 41.8764 25.6775 41.8472L25.6963 40.8473C27.2612 40.8767 29.3158 40.9354 30.2776 40.9746L30.2368 41.9738ZM32.3947 41.619C32.2764 41.8405 32.0683 41.9222 31.9415 41.9557C31.8103 41.9903 31.6615 42.0011 31.5184 42.0049C31.2292 42.0127 30.8021 41.9933 30.24 41.9739L30.2744 40.9745C30.8653 40.9949 31.2428 41.0119 31.4917 41.0053C31.6176 41.0019 31.6713 40.9928 31.6862 40.9888C31.7055 40.9837 31.5873 41.0081 31.5127 41.1478L32.3947 41.619ZM32.14 40.4303C32.2282 40.6067 32.325 40.7904 32.383 40.9321C32.4132 41.0059 32.4472 41.1008 32.462 41.204C32.4772 41.3105 32.4774 41.4641 32.3947 41.619L31.5127 41.1478C31.4614 41.2438 31.4692 41.3259 31.4721 41.3458C31.4745 41.3624 31.476 41.3559 31.4576 41.3111C31.4406 41.2694 31.415 41.215 31.3774 41.1394C31.3364 41.0569 31.3004 40.9873 31.2455 40.8775L32.14 40.4303ZM30.1636 38.5298C31.0081 38.9187 31.7264 39.6143 32.1387 40.4278L31.2468 40.8799C30.9364 40.2677 30.3852 39.7328 29.7453 39.4381L30.1636 38.5298ZM23.8996 37.9863C26.5341 38.0886 27.9135 38.1427 28.7083 38.2073C29.1069 38.2397 29.3814 38.2762 29.604 38.329C29.837 38.3842 29.9983 38.4537 30.1635 38.5298L29.7454 39.4382C29.603 39.3726 29.5116 39.3347 29.3735 39.302C29.225 39.2669 29.01 39.2351 28.6273 39.204C27.8596 39.1416 26.5095 39.0884 23.8608 38.9855L23.8996 37.9863ZM19.192 36.9892C20.1351 37.4361 20.6075 37.6447 21.182 37.7675C21.7706 37.8933 22.4797 37.9321 23.8993 37.9863L23.8612 38.9855C22.4683 38.9324 21.6637 38.893 20.973 38.7454C20.2682 38.5947 19.6957 38.3345 18.7638 37.8928L19.192 36.9892ZM21.7167 11.5768C18.1428 12.185 14.9978 14.5167 13.3994 17.7508L12.5029 17.3077C14.2444 13.784 17.6619 11.2524 21.5489 10.591L21.7167 11.5768ZM27.1575 11.9974C25.5759 11.4672 23.3643 11.2976 21.7164 11.5769L21.5493 10.591C23.3584 10.2843 25.7366 10.4663 27.4754 11.0493L27.1575 11.9974ZM34.8235 20.9054C33.9972 16.6327 31.1505 13.3347 27.1576 11.9975L27.4752 11.0493C31.8222 12.5051 34.913 16.1016 35.8054 20.7155L34.8235 20.9054ZM34.8233 24.7111C34.8917 24.3519 34.9316 23.5957 34.9316 22.8002C34.9316 22.0039 34.8916 21.2541 34.8237 20.9062L35.8052 20.7147C35.8936 21.1676 35.9316 22.0048 35.9316 22.8002C35.9316 23.5966 35.8935 24.4371 35.8056 24.8982L34.8233 24.7111ZM31.5937 30.8456C33.3167 29.1413 34.3629 27.1634 34.823 24.7124L35.8059 24.8969C35.309 27.5435 34.1676 29.7062 32.2969 31.5566L31.5937 30.8456ZM30.0056 32.2157C30.3413 32.0005 31.0633 31.3856 31.5886 30.8508L32.302 31.5515C31.7531 32.1103 30.9712 32.7845 30.5452 33.0576L30.0056 32.2157ZM15.3255 30.6225C19.1785 34.6813 25.2664 35.3407 30.0001 32.2192L30.5506 33.0541C25.4211 36.4365 18.7941 35.7288 14.6003 31.311L15.3255 30.6225ZM12.2305 22.8027C12.2305 25.841 13.2669 28.4609 15.325 30.6219L14.6008 31.3116C12.362 28.9608 11.2305 26.0925 11.2305 22.8027H12.2305ZM13.3989 17.7518C12.5748 19.4094 12.2305 20.8857 12.2305 22.8027H11.2305C11.2305 20.7353 11.6088 19.1061 12.5035 17.3066L13.3989 17.7518ZM25.3922 12.2127C27.695 12.6221 29.6844 13.6895 31.3287 15.3951L30.6088 16.0892C29.1086 14.5331 27.309 13.5692 25.2172 13.1973L25.3922 12.2127ZM21.478 12.275C21.9351 12.1759 22.7 12.1246 23.4294 12.1135C24.1601 12.1025 24.9273 12.1307 25.3916 12.2126L25.2178 13.1974C24.852 13.1329 24.1642 13.1025 23.4446 13.1134C22.7238 13.1243 22.0434 13.1756 21.69 13.2523L21.478 12.275ZM12.862 22.2983C13.118 17.3624 16.6031 13.3072 21.4804 12.2745L21.6876 13.2528C17.2484 14.1927 14.0929 17.8719 13.8607 22.3501L12.862 22.2983ZM22.5865 33.4962C16.9253 33.0142 12.5648 27.9856 12.862 22.2981L13.8606 22.3503C13.5914 27.5026 17.5513 32.0639 22.6713 32.4998L22.5865 33.4962ZM34.0005 25.4711C32.6197 30.6263 27.9068 33.9464 22.5867 33.4962L22.6711 32.4998C27.5073 32.909 31.7787 29.901 33.0346 25.2124L34.0005 25.4711ZM34.2715 22.8027C34.2715 23.4935 34.2645 23.9373 34.2263 24.3197C34.187 24.712 34.116 25.0293 34.0013 25.4682L33.0338 25.2153C33.1437 24.7948 33.1997 24.5359 33.2312 24.2202C33.2638 23.8946 33.2715 23.4986 33.2715 22.8027H34.2715ZM34.0002 20.1623C34.2413 21.0533 34.2715 21.4156 34.2715 22.8027H33.2715C33.2715 21.4554 33.2431 21.1927 33.0349 20.4235L34.0002 20.1623ZM31.3291 15.3955C32.629 16.7466 33.5107 18.3162 34.0009 20.1647L33.0343 20.4211C32.587 18.7344 31.789 17.3158 30.6084 16.0888L31.3291 15.3955ZM28.457 6.75723V4.91792H29.457V6.75723H28.457ZM29.3001 9.83319C29.1839 9.78992 28.9914 9.71964 28.8341 9.56478C28.6626 9.39579 28.5848 9.18424 28.5421 8.96661C28.4644 8.57092 28.4618 7.89945 28.457 6.75932L29.457 6.75515C29.462 7.95876 29.4692 8.49823 29.5233 8.77393C29.5465 8.89199 29.5652 8.88125 29.5359 8.85234C29.5209 8.83755 29.5163 8.84661 29.6492 8.89611L29.3001 9.83319ZM30.6339 9.5261C30.4554 9.68234 30.2537 9.82433 30.0126 9.88743C29.7535 9.95522 29.514 9.91607 29.2941 9.83094L29.6551 8.89837C29.7379 8.93043 29.7572 8.92057 29.7594 8.92001C29.7795 8.91475 29.8415 8.89072 29.9754 8.77352L30.6339 9.5261ZM31.0195 6.767C31.0195 7.82056 31.0201 8.39883 30.9907 8.73117C30.9759 8.89892 30.95 9.05993 30.8829 9.20538C30.8078 9.36801 30.702 9.46434 30.641 9.51978L29.9684 8.77984C30.0148 8.73762 29.9896 8.75461 29.9749 8.78632C29.9682 8.80085 29.9826 8.77936 29.9946 8.64316C30.019 8.36759 30.0195 7.85211 30.0195 6.767H31.0195ZM31.0195 4.91792V6.767H30.0195V4.91792H31.0195ZM29.7383 3.60098C30.0705 3.60098 30.4051 3.75244 30.6402 4.00315L29.9106 4.6871C29.8845 4.65919 29.8518 4.63629 29.8173 4.62087C29.7822 4.60514 29.7538 4.60098 29.7383 4.60098V3.60098ZM28.8364 4.00315C29.0714 3.75244 29.406 3.60098 29.7383 3.60098V4.60098C29.7228 4.60098 29.6944 4.60514 29.6593 4.62087C29.6248 4.63629 29.5921 4.65919 29.5659 4.6871L28.8364 4.00315ZM17.4336 4.60156C17.4181 4.60156 17.3897 4.60572 17.3546 4.62145C17.3201 4.63687 17.2874 4.65977 17.2613 4.68768L16.5317 4.00373C16.7668 3.75302 17.1014 3.60156 17.4336 3.60156V4.60156ZM17.6059 4.68768C17.5798 4.65977 17.5471 4.63687 17.5126 4.62145C17.4775 4.60572 17.4491 4.60156 17.4336 4.60156V3.60156C17.7658 3.60156 18.1004 3.75302 18.3355 4.00373L17.6059 4.68768ZM17.7148 6.76758V4.91851H18.7148V6.76758H17.7148ZM17.7148 8.62333V6.76758H18.7148V8.62333H17.7148ZM17.4336 8.9043C17.4429 8.9043 17.4751 8.90072 17.5213 8.88155C17.566 8.86296 17.6043 8.83772 17.6295 8.81416L18.3119 9.54522C18.0827 9.75914 17.7489 9.9043 17.4336 9.9043V8.9043ZM17.2376 8.81416C17.2629 8.83772 17.3012 8.86296 17.3459 8.88155C17.3921 8.90072 17.4243 8.9043 17.4336 8.9043V9.9043C17.1183 9.9043 16.7845 9.75914 16.5553 9.54522L17.2376 8.81416ZM17.1523 6.76758V8.62333H16.1523V6.76758H17.1523ZM17.1523 4.91851V6.76758H16.1523V4.91851H17.1523ZM23.5859 0.499023C23.5704 0.499023 23.5421 0.503185 23.5069 0.518909C23.4725 0.534328 23.4398 0.557232 23.4136 0.585136L22.6841 -0.0988083C22.9191 -0.349522 23.2537 -0.500977 23.5859 -0.500977V0.499023ZM23.7583 0.585136C23.7321 0.557232 23.6994 0.534328 23.665 0.518909C23.6298 0.503185 23.6014 0.499023 23.5859 0.499023V-0.500977C23.9182 -0.500977 24.2528 -0.349522 24.4878 -0.0988083L23.7583 0.585136ZM23.8672 4.71582V0.815971H24.8672V4.71582H23.8672ZM23.8672 8.62236V4.71582H24.8672V8.62236H23.8672ZM23.3908 8.81394C23.511 8.9266 23.6609 8.9266 23.7811 8.81394L24.465 9.54348C23.9602 10.0168 23.2117 10.0168 22.7069 9.54348L23.3908 8.81394ZM23.3047 4.71582V8.62236H22.3047V4.71582H23.3047ZM23.3047 0.815971V4.71582H22.3047V0.815971H23.3047ZM22.207 16.1221C22.207 15.8222 22.2293 15.5343 22.3441 15.2839C22.4722 15.0043 22.6821 14.8384 22.9079 14.7158L23.385 15.5947C23.269 15.6577 23.2592 15.6871 23.2531 15.7005C23.2336 15.743 23.207 15.8457 23.207 16.1221H22.207ZM22.207 16.2083V16.1221H23.207V16.2083H22.207ZM19.5703 20.0772C19.5703 18.5078 20.6409 16.9217 22.0998 16.3675L22.4549 17.3024C21.3943 17.7052 20.5703 18.9121 20.5703 20.0772H19.5703ZM21.3448 23.3505C20.8263 23.0205 20.3878 22.4964 20.0799 21.9278C19.7716 21.3586 19.5703 20.7009 19.5703 20.0772H20.5703C20.5703 20.4983 20.7108 20.993 20.9592 21.4516C21.2079 21.9108 21.5409 22.29 21.8817 22.5069L21.3448 23.3505ZM23.3641 24.0408C22.923 23.9913 22.5877 23.938 22.2716 23.8306C21.9507 23.7217 21.6754 23.5659 21.3403 23.3476L21.8862 22.5098C22.1957 22.7114 22.3892 22.8145 22.5931 22.8837C22.8019 22.9546 23.0477 22.999 23.4757 23.0471L23.3641 24.0408ZM24.599 24.529C24.464 24.3677 24.3524 24.2832 24.2014 24.2197C24.0303 24.1477 23.7851 24.0929 23.3586 24.0402L23.4813 23.0477C23.9239 23.1024 24.2841 23.1696 24.5891 23.2979C24.9142 23.4346 25.1493 23.6284 25.3658 23.887L24.599 24.529ZM23.5859 26.7451C24.7435 26.7451 25.3578 25.4322 24.5996 24.5296L25.3653 23.8864C26.6579 25.4252 25.612 27.7451 23.5859 27.7451V26.7451ZM22.2346 25.5006C22.2981 25.9211 22.4686 26.2273 22.6901 26.4268C22.9101 26.625 23.21 26.7451 23.5859 26.7451V27.7451C22.9853 27.7451 22.4405 27.5479 22.0208 27.1698C21.6027 26.7932 21.3386 26.2644 21.2458 25.6498L22.2346 25.5006ZM20.003 24.535C20.3989 24.146 20.9324 23.9926 21.4254 24.2356C21.8798 24.4596 22.1456 24.9485 22.2339 25.4956L21.2466 25.6548C21.1884 25.2936 21.044 25.1625 20.9833 25.1326C20.9571 25.1197 20.9324 25.1159 20.8993 25.1234C20.862 25.1319 20.7933 25.1604 20.704 25.2482L20.003 24.535ZM19.7324 26.4413C19.6267 26.028 19.5536 25.6753 19.5822 25.3678C19.616 25.0051 19.7818 24.7562 20 24.538L20.7071 25.2452C20.5932 25.359 20.5833 25.4031 20.5779 25.4604C20.5675 25.5727 20.5921 25.767 20.7012 26.1935L19.7324 26.4413ZM22.2308 29.1922C21.0793 28.7931 20.0467 27.6425 19.7331 26.444L20.7005 26.1908C20.9337 27.0821 21.7371 27.9627 22.5582 28.2473L22.2308 29.1922ZM22.207 29.3643C22.207 29.2304 22.2062 29.1516 22.2021 29.0972C22.2003 29.0721 22.1984 29.0628 22.1985 29.0631C22.1987 29.0642 22.2023 29.0814 22.2145 29.1065C22.2277 29.1338 22.2469 29.1617 22.2714 29.1864C22.2945 29.2097 22.3144 29.2222 22.3217 29.2263C22.3276 29.2297 22.3256 29.2279 22.3074 29.2206C22.2892 29.2132 22.265 29.2043 22.2273 29.1909L22.5617 28.2485C22.6611 28.2838 22.9681 28.369 23.1141 28.6699C23.1763 28.7981 23.1924 28.9289 23.1994 29.0234C23.2067 29.1216 23.207 29.2394 23.207 29.3643H22.207ZM22.9997 30.8303C22.7518 30.7249 22.5037 30.5701 22.3553 30.2658C22.2269 30.0026 22.207 29.6881 22.207 29.3643H23.207C23.207 29.685 23.236 29.7904 23.2541 29.8274C23.2575 29.8343 23.2592 29.8371 23.2683 29.8445C23.2828 29.8562 23.3161 29.8782 23.3909 29.91L22.9997 30.8303ZM23.9736 30.8317C23.8336 30.89 23.6737 30.9434 23.4883 30.9434C23.3028 30.9434 23.143 30.89 23.003 30.8317L23.3876 29.9086C23.482 29.9479 23.4979 29.9434 23.4883 29.9434C23.4786 29.9434 23.4946 29.9479 23.5889 29.9086L23.9736 30.8317ZM24.7695 29.3936C24.7695 29.7048 24.7494 30.0148 24.6198 30.2761C24.4705 30.5773 24.2219 30.7324 23.9669 30.8344L23.5956 29.9059C23.6673 29.8772 23.6988 29.8566 23.7117 29.8463C23.7196 29.8401 23.7209 29.838 23.7239 29.8318C23.7408 29.7977 23.7695 29.6975 23.7695 29.3936H24.7695ZM24.5827 29.3274C24.6146 29.3183 24.668 29.2952 24.7172 29.2451C24.7635 29.1978 24.7794 29.1536 24.7825 29.1438C24.7847 29.137 24.78 29.1493 24.7759 29.1966C24.7719 29.2421 24.7695 29.3052 24.7695 29.3936H23.7695C23.7695 29.2063 23.7765 29.0071 23.8298 28.8401C23.8597 28.7461 23.911 28.639 24.0031 28.545C24.0981 28.4482 24.2077 28.3946 24.308 28.3659L24.5827 29.3274ZM27.4494 24.4853C27.9811 26.5778 26.7237 28.6143 24.6034 29.321L24.2872 28.3723C25.9755 27.8096 26.8666 26.2523 26.4802 24.7315L27.4494 24.4853ZM23.9695 21.4754C25.7489 21.6951 27.0051 22.7744 27.4488 24.4827L26.4809 24.7341C26.1434 23.4346 25.2316 22.6389 23.8469 22.4679L23.9695 21.4754ZM22.7144 21.1058C22.9078 21.2439 22.9872 21.289 23.1094 21.327C23.261 21.3741 23.484 21.411 23.974 21.476L23.8425 22.4673C23.3753 22.4054 23.0613 22.3593 22.8125 22.2819C22.5343 22.1954 22.35 22.0744 22.1332 21.9196L22.7144 21.1058ZM23.3015 18.7545C22.1559 19.052 21.8952 20.4861 22.7254 21.1139L22.1223 21.9115C20.5502 20.7228 21.1879 18.2703 23.0501 17.7866L23.3015 18.7545ZM24.9414 20.0034C24.9381 19.6273 24.7326 19.258 24.4009 19.005C24.069 18.7519 23.6634 18.6549 23.3085 18.7526L23.0431 17.7884C23.7526 17.5931 24.475 17.8038 25.0073 18.2099C25.5399 18.616 25.9349 19.2575 25.9414 19.9946L24.9414 20.0034ZM26.2715 21.3975C25.8848 21.3975 25.5538 21.1662 25.3461 20.9411C25.1337 20.7108 24.9414 20.3708 24.9414 19.999H25.9414C25.9414 20.0374 25.9737 20.1466 26.0811 20.263C26.1292 20.3151 26.1788 20.3531 26.2205 20.3758C26.264 20.3995 26.2811 20.3975 26.2715 20.3975V21.3975ZM27.6016 20.0479C27.6016 20.4187 27.3784 20.7506 27.1758 20.9578C26.9753 21.1628 26.646 21.3975 26.2715 21.3975V20.3975C26.2489 20.3975 26.2614 20.4031 26.3101 20.3765C26.3549 20.3521 26.4087 20.3119 26.4609 20.2585C26.513 20.2053 26.5531 20.1495 26.5779 20.1019C26.6046 20.0507 26.6016 20.0328 26.6016 20.0479H27.6016ZM26.8718 17.8155C27.0758 18.1185 27.2545 18.5175 27.3821 18.9032C27.5084 19.2847 27.6016 19.7035 27.6016 20.0479H26.6016C26.6016 19.8551 26.5433 19.5513 26.4328 19.2174C26.3237 18.8878 26.1801 18.5787 26.0422 18.3739L26.8718 17.8155ZM25.0531 16.3716C25.8603 16.6988 26.3906 17.1105 26.87 17.8129L26.0441 18.3766C25.6836 17.8485 25.3155 17.557 24.6774 17.2983L25.0531 16.3716ZM24.9428 16.3263L25.0552 16.3725L24.6753 17.2975L24.5628 17.2513L24.9428 16.3263ZM24.0228 14.6928C24.2756 14.8113 24.4757 14.9955 24.606 15.2644C24.7258 15.5117 24.7725 15.8022 24.7884 16.1162L23.7897 16.167C23.7764 15.9048 23.74 15.7705 23.7061 15.7005C23.6825 15.6519 23.658 15.6262 23.5983 15.5982L24.0228 14.6928ZM22.9094 14.715C23.0506 14.639 23.2304 14.5535 23.4514 14.548C23.6692 14.5426 23.8591 14.6164 24.022 14.6924L23.5991 15.5986C23.469 15.5379 23.4538 15.5483 23.4764 15.5477C23.502 15.5471 23.4963 15.5348 23.3835 15.5955L22.9094 14.715ZM23.207 16.2083C23.207 16.6925 22.9092 17.1269 22.4575 17.3014L22.0971 16.3686C22.1634 16.343 22.207 16.2793 22.207 16.2083H23.207ZM22.7103 9.54668C22.4518 9.30885 22.3047 8.97363 22.3047 8.62236H23.3047C23.3047 8.69395 23.3347 8.76227 23.3874 8.81075L22.7103 9.54668ZM24.8672 8.62236C24.8672 8.97363 24.7201 9.30885 24.4616 9.54668L23.7845 8.81075C23.8372 8.76227 23.8672 8.69395 23.8672 8.62236H24.8672ZM24.4693 -0.117531C24.7235 0.126492 24.8672 0.463612 24.8672 0.815971H23.8672C23.8672 0.735909 23.8345 0.659306 23.7768 0.603859L24.4693 -0.117531ZM23.3951 0.603859C23.3373 0.659306 23.3047 0.735909 23.3047 0.815971H22.3047C22.3047 0.463612 22.4484 0.126492 22.7026 -0.117531L23.3951 0.603859ZM30.0195 4.91792C30.0195 4.83786 29.9869 4.76126 29.9291 4.70582L30.6217 3.98443C30.8758 4.22844 31.0195 4.56557 31.0195 4.91792H30.0195ZM16.558 9.54765C16.2994 9.30982 16.1523 8.97461 16.1523 8.62333H17.1523C17.1523 8.69493 17.1823 8.76325 17.235 8.81172L16.558 9.54765ZM33.8503 43.2064C33.5729 43.5126 33.1761 43.6828 32.7631 43.6729L32.787 42.6732C32.9095 42.6762 33.0271 42.6257 33.1094 42.5349L33.8503 43.2064ZM23.6993 47.723C23.8335 47.7614 23.9723 47.7808 24.1118 47.7808V48.7808C23.8793 48.7808 23.6479 48.7484 23.4244 48.6845L23.6993 47.723ZM7.4071 35.6806C7.40838 35.627 7.39432 35.6602 7.43877 35.7097C7.45958 35.7329 7.48172 35.7457 7.49562 35.7513C7.50763 35.7562 7.50648 35.753 7.48437 35.752L7.52896 34.753C7.75606 34.7632 8.00117 34.8394 8.18263 35.0414C8.36121 35.2401 8.41201 35.4873 8.40681 35.7045L7.4071 35.6806ZM34.474 41.4831C34.314 41.5587 34.2152 41.7232 34.2234 41.9L33.2245 41.9468C33.1973 41.3667 33.5217 40.8272 34.0467 40.579L34.474 41.4831ZM9.79353 45.8877C9.79352 45.8845 9.79423 45.741 9.64745 45.6295C9.4832 45.5047 9.32262 45.5579 9.29871 45.5676L9.67656 46.4935C9.53071 46.553 9.27318 46.601 9.04242 46.4257C8.82912 46.2636 8.79375 46.0242 8.79353 45.8893L9.79353 45.8877ZM17.2428 4.7064C17.185 4.76184 17.1523 4.83845 17.1523 4.91851H16.1523C16.1523 4.56615 16.296 4.22903 16.5502 3.98501L17.2428 4.7064ZM9.9662 48.2234C9.82536 48.2969 9.729 48.4342 9.7078 48.5917L8.71674 48.4583C8.78128 47.9788 9.07473 47.5606 9.50363 47.3369L9.9662 48.2234ZM7.15619 47.3685C7.11594 47.3673 7.08246 47.3991 7.08154 47.4394L8.08128 47.4621C8.0696 47.9762 7.64187 48.3826 7.12786 48.3681L7.15619 47.3685ZM24.5628 17.2513C24.12 17.0694 23.8199 16.6506 23.79 16.1728L24.7881 16.1104C24.7941 16.206 24.8541 16.2899 24.9428 16.3263L24.5628 17.2513ZM18.317 3.98501C18.5712 4.22903 18.7148 4.56615 18.7148 4.91851H17.7148C17.7148 4.83845 17.6822 4.76184 17.6244 4.7064L18.317 3.98501ZM9.28727 49.6252C9.04741 49.8859 8.70721 50.0312 8.35302 50.0241L8.37302 49.0243C8.44062 49.0257 8.50556 48.9979 8.55134 48.9482L9.28727 49.6252ZM29.5474 4.70582C29.4897 4.76126 29.457 4.83786 29.457 4.91792H28.457C28.457 4.56557 28.6007 4.22844 28.8549 3.98443L29.5474 4.70582ZM18.7148 8.62333C18.7148 8.97461 18.5677 9.30982 18.3092 9.54765L17.6322 8.81172C17.6849 8.76325 17.7148 8.69493 17.7148 8.62333H18.7148ZM10.0522 35.179C10.057 35.1234 10.0016 35.0821 9.94969 35.1027L10.3174 36.0326C9.67863 36.2851 8.99724 35.7779 9.0559 35.0936L10.0522 35.179Z" fill="#219653" mask="url(#path-1-outside-1_1_423)"/>
</svg>
