<svg width="70" height="70" viewBox="0 0 70 70" fill="none" xmlns="http://www.w3.org/2000/svg">
<path d="M26.3934 24.6169L28.4075 25.9897L26.3934 24.6169ZM39.6184 26.1572L40.896 24.0814L39.6184 26.1572ZM30.611 22.0212L30.3397 19.5988L30.611 22.0212ZM30.611 47.9788L30.3397 50.4012L30.611 47.9788ZM26.3934 45.3831L24.3792 46.756L26.3934 45.3831ZM47.4824 37.5957L45.2332 36.6562L47.4824 37.5957ZM47.4824 32.4043L45.2332 33.3438L47.4824 32.4043ZM65.0625 35C65.0625 51.6031 51.6031 65.0625 35 65.0625V69.9375C54.2954 69.9375 69.9375 54.2954 69.9375 35H65.0625ZM35 65.0625C18.3969 65.0625 4.9375 51.6031 4.9375 35H0.0624998C0.0624998 54.2954 15.7046 69.9375 35 69.9375V65.0625ZM4.9375 35C4.9375 18.3969 18.3969 4.9375 35 4.9375V0.0624998C15.7046 0.0624998 0.0624998 15.7046 0.0624998 35H4.9375ZM35 4.9375C51.6031 4.9375 65.0625 18.3969 65.0625 35H69.9375C69.9375 15.7046 54.2954 0.0624998 35 0.0624998V4.9375ZM27.6875 35C27.6875 32.053 27.6897 30.0014 27.8214 28.4701C27.9549 26.9197 28.1993 26.2952 28.4075 25.9897L24.3792 23.244C23.4441 24.616 23.1168 26.2813 22.9644 28.0521C22.8103 29.8421 22.8125 32.1432 22.8125 35H27.6875ZM40.896 24.0814C38.5811 22.6567 36.6967 21.4939 35.1474 20.7323C33.6149 19.9789 32.0191 19.4107 30.3397 19.5988L30.8824 24.4435C31.1375 24.4149 31.6879 24.4638 32.9967 25.1072C34.2885 25.7423 35.9405 26.7559 38.3409 28.2331L40.896 24.0814ZM28.4075 25.9897C29.0243 25.0848 29.935 24.5497 30.8824 24.4435L30.3397 19.5988C27.9122 19.8708 25.7571 21.2225 24.3792 23.244L28.4075 25.9897ZM38.3409 41.7669C35.9405 43.2441 34.2885 44.2577 32.9967 44.8928C31.6879 45.5362 31.1375 45.585 30.8824 45.5565L30.3397 50.4012C32.0191 50.5893 33.6149 50.0211 35.1474 49.2677C36.6967 48.5061 38.5811 47.3433 40.896 45.9186L38.3409 41.7669ZM22.8125 35C22.8125 37.8568 22.8103 40.1579 22.9644 41.9479C23.1168 43.7187 23.4441 45.384 24.3792 46.756L28.4075 44.0103C28.1993 43.7048 27.9549 43.0803 27.8214 41.5299C27.6897 39.9986 27.6875 37.947 27.6875 35H22.8125ZM30.8824 45.5565C29.935 45.4503 29.0243 44.9152 28.4075 44.0103L24.3792 46.756C25.7571 48.7775 27.9122 50.1292 30.3397 50.4012L30.8824 45.5565ZM40.896 45.9186C43.212 44.4933 45.0973 43.336 46.4883 42.2885C47.8789 41.2412 49.0844 40.0846 49.7316 38.5351L45.2332 36.6562C45.0892 37.0011 44.7203 37.517 43.5555 38.3943C42.3911 39.2712 40.7401 40.2903 38.3409 41.7669L40.896 45.9186ZM38.3409 28.2331C40.7401 29.7097 42.3911 30.7288 43.5555 31.6057C44.7204 32.483 45.0892 32.9989 45.2332 33.3438L49.7316 31.4649C49.0844 29.9154 47.8789 28.7588 46.4883 27.7115C45.0973 26.664 43.212 25.5067 40.896 24.0814L38.3409 28.2331ZM49.7316 38.5351C50.6728 36.2817 50.6728 33.7183 49.7316 31.4649L45.2332 33.3438C45.6723 34.3949 45.6723 35.6051 45.2332 36.6562L49.7316 38.5351Z" fill="white"/>
</svg>
