<svg width="20" height="21" viewBox="0 0 20 21" fill="none" xmlns="http://www.w3.org/2000/svg">
<path d="M2.29297 3.6543L4.0263 3.95408L4.8288 13.5081C4.89297 14.2883 5.54547 14.8871 6.3288 14.8846H15.4196C16.1671 14.8862 16.8013 14.3366 16.9071 13.5972L17.698 8.13608C17.7863 7.52568 17.3621 6.95942 16.7521 6.87115C16.6988 6.86366 4.30464 6.85949 4.30464 6.85949" stroke="black" stroke-width="1.5" stroke-linecap="round" stroke-linejoin="round"/>
<path d="M11.7734 9.93815H14.0843" stroke="black" stroke-width="1.5" stroke-linecap="round" stroke-linejoin="round"/>
<path fill-rule="evenodd" clip-rule="evenodd" d="M5.96505 17.7715C6.21589 17.7715 6.41839 17.9748 6.41839 18.2248C6.41839 18.4757 6.21589 18.679 5.96505 18.679C5.71422 18.679 5.51172 18.4757 5.51172 18.2248C5.51172 17.9748 5.71422 17.7715 5.96505 17.7715Z" fill="black" stroke="black" stroke-width="1.5" stroke-linecap="round" stroke-linejoin="round"/>
<path fill-rule="evenodd" clip-rule="evenodd" d="M15.3635 17.7712C15.6143 17.7712 15.8177 17.9746 15.8177 18.2246C15.8177 18.4754 15.6143 18.6787 15.3635 18.6787C15.1127 18.6787 14.9102 18.4754 14.9102 18.2246C14.9102 17.9746 15.1127 17.7712 15.3635 17.7712Z" fill="black" stroke="black" stroke-width="1.5" stroke-linecap="round" stroke-linejoin="round"/>
</svg>
