<svg width="137" height="44" viewBox="0 0 137 44" fill="none" xmlns="http://www.w3.org/2000/svg">
<path d="M50.437 36.5356C53.0778 36.5356 55.3639 35.4298 56.704 33.5737V36.1407H60.2908V7.94336H56.704V19.9884C55.3245 18.1323 53.0778 16.987 50.3976 16.987C45.2736 16.987 41.332 21.2522 41.332 26.7811C41.332 32.2705 45.2736 36.5356 50.437 36.5356ZM51.0282 33.1788C47.4808 33.1788 44.9977 30.5328 44.9977 26.7416C44.9977 22.9898 47.4808 20.3439 50.9888 20.3439C54.5362 20.3439 56.9405 22.9898 56.9405 26.7811C56.9405 30.5328 54.5362 33.1788 51.0282 33.1788Z" fill="#013D29"/>
<path d="M72.9443 36.5356C75.9005 36.5356 78.5807 35.3903 80.3938 33.2972L78.1078 30.9672C76.8859 32.4679 75.0334 33.1788 72.9443 33.1788C69.594 33.1788 67.2291 31.2042 66.6773 28.0843H81.3398C81.4975 27.3339 81.5369 26.7416 81.5369 26.1887C81.5369 20.8573 77.8318 16.987 72.7079 16.987C67.2685 16.987 63.0511 21.2522 63.0511 26.7416C63.0511 32.3494 67.308 36.5356 72.9443 36.5356ZM72.629 20.2649C75.7034 20.2649 77.6742 22.0815 78.0683 25.1224H66.6773C67.2291 22.1605 69.4758 20.2649 72.629 20.2649Z" fill="#013D29"/>
<path d="M92.8937 36.5356C95.8499 36.5356 98.5301 35.3903 100.343 33.2972L98.0571 30.9672C96.8353 32.4679 94.9827 33.1788 92.8937 33.1788C89.5434 33.1788 87.1785 31.2042 86.6267 28.0843H101.289C101.447 27.3339 101.486 26.7416 101.486 26.1887C101.486 20.8573 97.7812 16.987 92.6572 16.987C87.2179 16.987 83.0005 21.2522 83.0005 26.7416C83.0005 32.3494 87.2573 36.5356 92.8937 36.5356ZM92.5784 20.2649C95.6528 20.2649 97.6236 22.0815 98.0177 25.1224H86.6267C87.1785 22.1605 89.4252 20.2649 92.5784 20.2649Z" fill="#013D29"/>
<path d="M104.172 36.1407H107.719V7.94336H104.172V36.1407Z" fill="#013D29"/>
<path d="M111.727 36.1407H115.274V7.94336H111.727V36.1407Z" fill="#013D29"/>
<path d="M120.07 43.9996H124.012L127.559 36.2986L136.309 17.382H132.368L126.653 30.6908L121.253 17.382H117.311L124.682 34.5215L120.07 43.9996Z" fill="#013D29"/>
<g clip-path="url(#clip0_1_605)">
<path d="M28.1738 8.22104C25.5495 5.83099 21.8967 4.37363 17.7516 4.37363H12.2779V24.2847H18.4726C21.0091 24.2847 22.8721 22.6889 23.7231 20.665C24.3819 19.1056 24.4698 17.273 23.7542 15.7173C22.3377 12.6441 18.7801 12.3035 15.8008 12.3035V7.93504C20.7236 7.93504 25.4854 9.0408 27.7328 13.9047C28.9516 16.548 28.8948 19.6722 27.7748 22.3373C26.2852 25.8696 22.9911 28.6586 18.4726 28.6586H7.88574V-0.000244141H17.7516C23.0222 -0.000244141 27.7071 1.89978 31.1202 5.01305C38.6893 11.9118 38.704 23.4376 31.4569 30.5477C27.7108 34.2239 22.5958 36.1148 17.3673 36.1148H0V7.93686H4.40496C4.40496 15.8685 4.39398 23.8001 4.39398 31.7482H17.3673C21.4868 31.7482 25.4232 30.3491 28.3861 27.4417C33.8433 22.0859 33.8744 13.4274 28.1738 8.22104Z" fill="#219653"/>
</g>
<defs>
<clipPath id="clip0_1_605">
<rect width="36.8465" height="36.1168" fill="white"/>
</clipPath>
</defs>
</svg>
