<svg width="52" height="51" viewBox="0 0 52 51" fill="none" xmlns="http://www.w3.org/2000/svg">
<g clip-path="url(#clip0_1_74)">
<path d="M39.7606 11.6021C36.057 8.22915 30.902 6.17244 25.0522 6.17244H17.3273V34.2722H26.0697C29.6494 34.2722 32.2785 32.0201 33.4795 29.1638C34.4093 26.9632 34.5332 24.3769 33.5234 22.1813C31.5244 17.8442 26.5036 17.3635 22.299 17.3635V11.1985C29.2464 11.1985 35.9666 12.759 39.1382 19.6233C40.8582 23.3536 40.7782 27.7627 39.1976 31.5239C37.0953 36.5089 32.4464 40.4449 26.0697 40.4449H11.1288V-0.000244141H25.0522C32.4903 -0.000244141 39.102 2.68119 43.9187 7.07482C54.6008 16.8108 54.6214 33.0767 44.394 43.1109C39.1072 48.2989 31.8885 50.9675 24.5098 50.9675H0V11.2011H6.21655C6.21655 22.3947 6.20105 33.5883 6.20105 44.8051H24.5098C30.3234 44.8051 35.8788 42.8306 40.0602 38.7275C47.7618 31.1691 47.8057 18.9497 39.7606 11.6021Z" fill="#219653"/>
</g>
<defs>
<clipPath id="clip0_1_74">
<rect width="52" height="50.9703" fill="white"/>
</clipPath>
</defs>
</svg>
