<svg width="45" height="45" viewBox="0 0 45 45" fill="none" xmlns="http://www.w3.org/2000/svg">
<rect x="0.140625" y="0.726562" width="44" height="44" rx="10" fill="url(#paint0_linear_1_598)"/>
<path d="M25.7167 24.5507C27.5429 24.5507 29.0275 26.0162 29.0275 27.8188C29.0275 29.6205 27.5429 31.087 25.7167 31.087C23.8905 31.087 22.4059 29.6205 22.4059 27.8188C22.4059 26.0162 23.8905 24.5507 25.7167 24.5507ZM25.7167 26.0836C24.7466 26.0836 23.9588 26.8613 23.9588 27.8188C23.9588 28.7754 24.7466 29.5541 25.7167 29.5541C26.6867 29.5541 27.4746 28.7754 27.4746 27.8188C27.4746 26.8613 26.6867 26.0836 25.7167 26.0836ZM22.397 27.0521C22.8256 27.0521 23.1735 27.3955 23.1735 27.8185C23.1735 28.2416 22.8256 28.585 22.397 28.585H16.0311C15.6025 28.585 15.2546 28.2416 15.2546 27.8185C15.2546 27.3955 15.6025 27.0521 16.0311 27.0521H22.397ZM18.5647 16.127C20.3909 16.127 21.8755 17.5934 21.8755 19.3951C21.8755 21.1967 20.3909 22.6632 18.5647 22.6632C16.7395 22.6632 15.2539 21.1967 15.2539 19.3951C15.2539 17.5934 16.7395 16.127 18.5647 16.127ZM18.5647 17.6598C17.5957 17.6598 16.8068 18.4385 16.8068 19.3951C16.8068 20.3516 17.5957 21.1303 18.5647 21.1303C19.5348 21.1303 20.3226 20.3516 20.3226 19.3951C20.3226 18.4385 19.5348 17.6598 18.5647 17.6598ZM28.2514 18.6288C28.68 18.6288 29.0278 18.9722 29.0278 19.3953C29.0278 19.8183 28.68 20.1617 28.2514 20.1617H21.8844C21.4558 20.1617 21.108 19.8183 21.108 19.3953C21.108 18.9722 21.4558 18.6288 21.8844 18.6288H28.2514Z" fill="white"/>
<defs>
<linearGradient id="paint0_linear_1_598" x1="-10.1825" y1="0.726567" x2="49.5763" y2="4.0384" gradientUnits="userSpaceOnUse">
<stop stop-color="#5ACD84"/>
<stop offset="1" stop-color="#56AEFF"/>
</linearGradient>
</defs>
</svg>
